<mxfile host="Electron" agent="Mozilla/5.0 (Windows NT 10.0; Win64; x64) AppleWebKit/537.36 (KHTML, like Gecko) draw.io/24.7.5 Chrome/126.0.6478.183 Electron/31.3.0 Safari/537.36" version="24.7.5">
  <diagram name="第 1 页" id="djfBsowLm9ZNMGCjmtch">
    <mxGraphModel dx="2609" dy="717" grid="1" gridSize="10" guides="1" tooltips="1" connect="1" arrows="1" fold="1" page="1" pageScale="1" pageWidth="827" pageHeight="1169" math="0" shadow="0">
      <root>
        <mxCell id="0" />
        <mxCell id="1" parent="0" />
        <mxCell id="60c-diU0AfoR0_J28Jli-1" style="edgeStyle=orthogonalEdgeStyle;rounded=0;orthogonalLoop=1;jettySize=auto;html=1;exitX=0.5;exitY=1;exitDx=0;exitDy=0;entryX=0.5;entryY=0;entryDx=0;entryDy=0;" edge="1" parent="1" source="60c-diU0AfoR0_J28Jli-2" target="60c-diU0AfoR0_J28Jli-13">
          <mxGeometry relative="1" as="geometry" />
        </mxCell>
        <mxCell id="60c-diU0AfoR0_J28Jli-2" value="&amp;nbsp;Class A" style="rounded=0;whiteSpace=wrap;html=1;" vertex="1" parent="1">
          <mxGeometry x="-760" y="426.8" width="120" height="60" as="geometry" />
        </mxCell>
        <mxCell id="60c-diU0AfoR0_J28Jli-3" style="edgeStyle=orthogonalEdgeStyle;rounded=0;orthogonalLoop=1;jettySize=auto;html=1;exitX=0.5;exitY=1;exitDx=0;exitDy=0;entryX=0.5;entryY=0;entryDx=0;entryDy=0;" edge="1" parent="1" source="60c-diU0AfoR0_J28Jli-5" target="60c-diU0AfoR0_J28Jli-2">
          <mxGeometry relative="1" as="geometry" />
        </mxCell>
        <mxCell id="60c-diU0AfoR0_J28Jli-4" style="edgeStyle=orthogonalEdgeStyle;rounded=0;orthogonalLoop=1;jettySize=auto;html=1;exitX=0.5;exitY=1;exitDx=0;exitDy=0;" edge="1" parent="1" source="60c-diU0AfoR0_J28Jli-5" target="60c-diU0AfoR0_J28Jli-7">
          <mxGeometry relative="1" as="geometry" />
        </mxCell>
        <mxCell id="60c-diU0AfoR0_J28Jli-5" value="Base" style="rounded=0;whiteSpace=wrap;html=1;" vertex="1" parent="1">
          <mxGeometry x="-640" y="310" width="120" height="60" as="geometry" />
        </mxCell>
        <mxCell id="60c-diU0AfoR0_J28Jli-6" style="edgeStyle=orthogonalEdgeStyle;rounded=0;orthogonalLoop=1;jettySize=auto;html=1;exitX=0.5;exitY=1;exitDx=0;exitDy=0;entryX=0.5;entryY=0;entryDx=0;entryDy=0;" edge="1" parent="1" source="60c-diU0AfoR0_J28Jli-7" target="60c-diU0AfoR0_J28Jli-15">
          <mxGeometry relative="1" as="geometry" />
        </mxCell>
        <mxCell id="60c-diU0AfoR0_J28Jli-7" value="Class B" style="rounded=0;whiteSpace=wrap;html=1;" vertex="1" parent="1">
          <mxGeometry x="-520" y="426.8" width="120" height="60" as="geometry" />
        </mxCell>
        <mxCell id="60c-diU0AfoR0_J28Jli-10" style="edgeStyle=orthogonalEdgeStyle;rounded=0;orthogonalLoop=1;jettySize=auto;html=1;exitX=1;exitY=0.5;exitDx=0;exitDy=0;entryX=1;entryY=0.5;entryDx=0;entryDy=0;" edge="1" parent="1" source="60c-diU0AfoR0_J28Jli-11" target="60c-diU0AfoR0_J28Jli-13">
          <mxGeometry relative="1" as="geometry" />
        </mxCell>
        <mxCell id="60c-diU0AfoR0_J28Jli-11" value="A.CPP" style="rounded=0;whiteSpace=wrap;html=1;" vertex="1" parent="1">
          <mxGeometry x="-760" y="650" width="120" height="60" as="geometry" />
        </mxCell>
        <mxCell id="60c-diU0AfoR0_J28Jli-12" style="edgeStyle=orthogonalEdgeStyle;rounded=0;orthogonalLoop=1;jettySize=auto;html=1;exitX=0.5;exitY=1;exitDx=0;exitDy=0;entryX=0.5;entryY=0;entryDx=0;entryDy=0;" edge="1" parent="1" source="60c-diU0AfoR0_J28Jli-13" target="60c-diU0AfoR0_J28Jli-11">
          <mxGeometry relative="1" as="geometry" />
        </mxCell>
        <mxCell id="60c-diU0AfoR0_J28Jli-13" value="Method," style="rounded=0;whiteSpace=wrap;html=1;" vertex="1" parent="1">
          <mxGeometry x="-760" y="520" width="120" height="60" as="geometry" />
        </mxCell>
        <mxCell id="60c-diU0AfoR0_J28Jli-14" style="edgeStyle=orthogonalEdgeStyle;rounded=0;orthogonalLoop=1;jettySize=auto;html=1;exitX=0.5;exitY=1;exitDx=0;exitDy=0;entryX=0.5;entryY=0;entryDx=0;entryDy=0;" edge="1" parent="1" source="60c-diU0AfoR0_J28Jli-15" target="60c-diU0AfoR0_J28Jli-19">
          <mxGeometry relative="1" as="geometry" />
        </mxCell>
        <mxCell id="60c-diU0AfoR0_J28Jli-15" value="Method, Parameter" style="rounded=0;whiteSpace=wrap;html=1;" vertex="1" parent="1">
          <mxGeometry x="-520" y="520" width="120" height="60" as="geometry" />
        </mxCell>
        <mxCell id="60c-diU0AfoR0_J28Jli-16" value="" style="shape=link;html=1;rounded=0;" edge="1" parent="1">
          <mxGeometry width="100" relative="1" as="geometry">
            <mxPoint x="-870" y="610" as="sourcePoint" />
            <mxPoint x="-300" y="610" as="targetPoint" />
          </mxGeometry>
        </mxCell>
        <mxCell id="60c-diU0AfoR0_J28Jli-17" value="cpp_mpi_conf&lt;div&gt;cpp_exec_conf&lt;/div&gt;" style="text;html=1;align=center;verticalAlign=middle;resizable=0;points=[];autosize=1;strokeColor=none;fillColor=none;" vertex="1" parent="1">
          <mxGeometry x="-980" y="588.59" width="100" height="40" as="geometry" />
        </mxCell>
        <mxCell id="60c-diU0AfoR0_J28Jli-18" style="edgeStyle=orthogonalEdgeStyle;rounded=0;orthogonalLoop=1;jettySize=auto;html=1;exitX=1;exitY=0.5;exitDx=0;exitDy=0;entryX=1;entryY=0.5;entryDx=0;entryDy=0;" edge="1" parent="1" source="60c-diU0AfoR0_J28Jli-19" target="60c-diU0AfoR0_J28Jli-15">
          <mxGeometry relative="1" as="geometry" />
        </mxCell>
        <mxCell id="60c-diU0AfoR0_J28Jli-19" value="B.CPP" style="rounded=0;whiteSpace=wrap;html=1;" vertex="1" parent="1">
          <mxGeometry x="-520" y="650" width="120" height="60" as="geometry" />
        </mxCell>
        <mxCell id="60c-diU0AfoR0_J28Jli-20" value="cpp_msg" style="text;html=1;align=center;verticalAlign=middle;resizable=0;points=[];autosize=1;strokeColor=none;fillColor=none;" vertex="1" parent="1">
          <mxGeometry x="-620" y="565" width="70" height="30" as="geometry" />
        </mxCell>
        <mxCell id="60c-diU0AfoR0_J28Jli-21" value="&lt;span style=&quot;color: rgb(0, 0, 0); font-family: Helvetica; font-size: 12px; font-style: normal; font-variant-ligatures: normal; font-variant-caps: normal; font-weight: 400; letter-spacing: normal; orphans: 2; text-align: center; text-indent: 0px; text-transform: none; widows: 2; word-spacing: 0px; -webkit-text-stroke-width: 0px; white-space: normal; background-color: rgb(251, 251, 251); text-decoration-thickness: initial; text-decoration-style: initial; text-decoration-color: initial; display: inline !important; float: none;&quot;&gt;Parameter&lt;/span&gt;" style="text;whiteSpace=wrap;html=1;" vertex="1" parent="1">
          <mxGeometry x="-780" y="620" width="60" height="30" as="geometry" />
        </mxCell>
        <mxCell id="60c-diU0AfoR0_J28Jli-22" value="&lt;span style=&quot;color: rgb(0, 0, 0); font-family: Helvetica; font-size: 12px; font-style: normal; font-variant-ligatures: normal; font-variant-caps: normal; font-weight: 400; letter-spacing: normal; orphans: 2; text-align: center; text-indent: 0px; text-transform: none; widows: 2; word-spacing: 0px; -webkit-text-stroke-width: 0px; white-space: normal; background-color: rgb(251, 251, 251); text-decoration-thickness: initial; text-decoration-style: initial; text-decoration-color: initial; display: inline !important; float: none;&quot;&gt;Parameter&lt;/span&gt;" style="text;whiteSpace=wrap;html=1;" vertex="1" parent="1">
          <mxGeometry x="-540" y="620" width="60" height="30" as="geometry" />
        </mxCell>
        <mxCell id="60c-diU0AfoR0_J28Jli-23" value="cpp_msg" style="text;html=1;align=center;verticalAlign=middle;resizable=0;points=[];autosize=1;strokeColor=none;fillColor=none;" vertex="1" parent="1">
          <mxGeometry x="-363" y="565" width="70" height="30" as="geometry" />
        </mxCell>
        <mxCell id="60c-diU0AfoR0_J28Jli-24" value="pybind" style="text;html=1;align=center;verticalAlign=middle;resizable=0;points=[];autosize=1;strokeColor=none;fillColor=none;" vertex="1" parent="1">
          <mxGeometry x="-1070" y="595" width="60" height="30" as="geometry" />
        </mxCell>
        <mxCell id="60c-diU0AfoR0_J28Jli-25" value="&lt;font style=&quot;font-size: 16px;&quot;&gt;OOP for software development&lt;/font&gt;" style="text;html=1;align=center;verticalAlign=middle;whiteSpace=wrap;rounded=0;" vertex="1" parent="1">
          <mxGeometry x="-990" y="441.8" width="160" height="30" as="geometry" />
        </mxCell>
        <mxCell id="60c-diU0AfoR0_J28Jli-26" value="&lt;font style=&quot;font-size: 19px;&quot;&gt;Hoomd Code Structure&lt;/font&gt;" style="text;html=1;align=center;verticalAlign=middle;whiteSpace=wrap;rounded=0;" vertex="1" parent="1">
          <mxGeometry x="-950" y="290" width="270" height="30" as="geometry" />
        </mxCell>
        <mxCell id="60c-diU0AfoR0_J28Jli-27" value="" style="shape=image;verticalLabelPosition=bottom;labelBackgroundColor=default;verticalAlign=top;aspect=fixed;imageAspect=0;image=https://logos-world.net/wp-content/uploads/2021/10/Python-Logo.png;" vertex="1" parent="1">
          <mxGeometry x="-970" y="330" width="120" height="67.5" as="geometry" />
        </mxCell>
        <mxCell id="60c-diU0AfoR0_J28Jli-34" value="" style="shape=image;verticalLabelPosition=bottom;labelBackgroundColor=default;verticalAlign=top;aspect=fixed;imageAspect=0;image=data:image/jpeg,iVBORw0KGgoAAAANSUhEUgAAAPAAAADwCAYAAAA+VemSAAAAAXNSR0IArs4c6QAAAARnQU1BAACxjwv8YQUAAAAJcEhZcwAAGdYAABnWARjRyu0AANsASURBVHhe7L0HYFXXlf0terdxiZ0y/2QmmclMZiaTTCbVFbABd5vehUSRACF6MTbGvdFBqHfR3bvBxhhjeu+9Y9OremV9a+3zrvQQz46wCCSfJXtxX73v3nPO7+y9Tw26cOECqlSlKv1jqgrgKlXpH1hVAFepSv/AqgK4SlX6B1YVwFWq0j+wqgCuUpX+gVUFcJWq9A+sKoCrVKV/YFUBXKUq/QOrCuAqVekfWFUAV6lK/8CqArhKVfoHVhXAVarSP7CqAK5Slf6BVQVwlar0D6wqgCut4m/RBaDkr8s7F/idQPLOV4ILpiKgVGXXIek5VVJO9rr7LXfOwlJ51ynZ+X0f83TJd0skfteT3/erdPVVBXClJKgKqYJSXeBzyQHiFXiq2KciguCp2AdGKRyCosCnPFNB7lliqnMW4XTWWZzJywXfQQ6Vye8XFPG9YlEqmp30MyU+cHOyLiAvl9ep3zOa+RvIpbL4wfP23Psqv4YCPpBUOei5B3EpuMX89SJ+tyiTj3nka4HTpkpXQ1UAV0oCWODm+QHs5Fm4UniLfCokDZ4MYAeIzlcGMSG5QESpCwSliMCoUijih/PJ0qnCQhwvKADxU1UB8VvAr+aTujyKvJry+LrVFfyMTl9UVILiIp5b4BWdRXHhaT7P5eWpEiqz7gJY59XjKoD/vlUFcKXkb4F1lDVzugjgiyywn3S4BBb9o++qEpCtzUd+/jmcyzpFsPJLIc7i8WxRUak1PsNzneLXThPac3zu6QjfPMoPneF77mwElCrif/klufzNfF6ek/2uuxKf3PXYNZV6CRI/54mvlaVHla62qgCupGjTKMHrjhZTVhRgMiJD7IHFT/vw0bndeU6fOW7vyDbmFGbj+NmTyCY4+rzAPcovbD1VjM93nsBbK/dg1qLtSPlkE2LeXYNJry1F8vyNmLtkJz7Z8jXWfpWJfZlFOMnflPXW93XVF+iyyxKXyLraVfhklYivUrLKysXIukZPXqVTpWujKoArKed6elao7GjWyl/+VqtUDlxFpFIgkPMLCZc9v4DM/FyzntKxzCws2rgDSfNX49U3l+KJlHkYOO1dREx9F32nvofeE95B6KtvYFD8fIxIXoCnMj7DszM/xcS3F2POiu1YfTIXp3ge/Z6uv7gk3yC+UJTNH6N7TKtfknuGb/KqCLIg1jV418tP2VHX6Z8eVbq6qgK4knIA6/HFBbnU5fxWgM1WG7ieBIgHsSRYT+fk4+szWWYxpX0ns/Da/EUYMy0Dg6LfQVjUB+gx+QMeP0H/pCUYNnMdRr22FaPe3IreMZ+jX8Ji9E9YiD7RH6HPlDcxNPkjTPhoDeau2o3DPOG5wmL7TVUUhiRdaxQS4oKzfMw41+LxAgNY1yh4ZcF1rAL42qoK4EpLBZiiNS19bK97klUWxMTxIsk9pVvKz3uN0gJWEkwCRRbu4Jk8nORHFc/u5T9vLt6M5+Jfx+NTZuLZ9E/w+IyVGDR9HfqnrUff5LUIS1yLnolr0CNhLULj1/D5ekSkb8DA6ZswMGMtIpOXIiL+M0TGL8DQhPmY/eVOLNr2FfaeLQKRtQqDl+K7Pl6BASypoa7Qrk/XxVeqLPDfgaoArrRYgAWvJz03+X/GQezFxt7RSdaZX+B3PZg9N1WQyNIdJkvzNh3HyzM/x9Dod/Fk2mcYlfY5wqd8jPDY5QiLX4c+yZsRnrINvZO3oVfSVvRI3o6eKTsQMX0f+qTuIMgbEZ6wHv2SBPFaDEhejYEJSxDyyut4ftZivLfhGLaxgjjBS2KYjAJaZWvY8msRF9Ryt3UHnrdgjsZF91qlq6kqgCstFeBvkvtMcXExioqKUHxB9soXNRfTmhUQigKiWihQClFSVIzcAsa6/Jisoazu0v35SPxkO4bRBY6MX4hBqSvRL3kVesUtR8+4VeiTuAV9ErYjPHE7eifuJLxU4m5qj++4214PT9hpn+ubsAURCZvQP17agMjUDQid9jl6T52Pl19fjU+3n8XXvBxeGfJZqRTq2mSN6VZbfOxz8NWolqdr519JSYndn6TH/n8Xp1WVrrSqAL5i8ge3TIW0ZIXFLNzFBJkmWiooYcxZWIC8PGJSnIuizNPIOXdabJtLKnhW7TmHjAXbMf7NdRgSvwghkz5Fj5hl6J2yGSHJWxBMK9srbY8PTCp+Nx8T1gSBK+3zaY+9pvf7UhFxO9E/bjsGxG6nK70dIYlbET5jNyJnbkNE0nIMjP4E415bhi+2n8JZXo8qk9LYuDgPuerOyjnFx/IPzAbbu+X/lCaC+dJ0qtKVVBXAlZTzIb3W5zKZV0z5D5ISCAI0jw/y6CvLTS3IoVUrlCvNAz976FQ+Plt3ANFvr8ATiQvQP2YhekZ9gR6xqxGWTuuasRcdaUnbxe9CcPIBQrvHwPQA1nMB6y+95gHcP3Y34d1p0vNucbvQPZ2gszLoHrMGXccvQN+oT/HK3FWYsXAr9p0FjtPQ6pp1D3YHFwhucSbys09aF5SlQ7k/S4MqgP/mqgK4knKtzGV9pU6uZdpiWr4taAUvMTUQcvmCjvac/+j9LP6zbvdJJL6zFE9Ev4MRsZ9gzMx16J+4EuFJG9A3fRf6zj6EntMPoiPBa0sQu9LCOoCdFZY1NitsbnOZ9Jre1+f60wIbwDGyxrsRmrAXnfh6l9htFjMPmrkbw2ZsxaD4pYiY9D7G0xrPW3cYJxj0yt7qPnJzs+nxy08oREF+LuufQgsTBKwHrffnn1ZVuvKqArhSYnEubVF28kD2AM7OL0IOg8lcvp3Lj0o5/Fo+3xMQajRa/1UB5n6xE2NnLiK48zAo5lMMTFiKganrrYEqNG4DLeUmdGec253xbDBh7J5EOFP3G7SKbUvjYLnWF0mxsXtPn5Hb7FxoB3MYH/dJ2YeI9P080mLHb0XP2A3ol7QRQzM2YGDMF3gi6XPEvrsGCzZ+ha/Oub5ggVweXD3Wa4qFvb/A6ValK6UqgCslFWO1x8oa6ZhHbB3Eaq0VwHKVZXHz+VEybNIY5fP8+FF6z++sPoKpH261Rqo+U+chMmEJBqevR0TqRrrNa83yCsLgmI3oFr0BITGb0JOQ9Unawc/Q4iqGTdxi6p20Bb2SN6FHir/0mntPn+mbsJUQbyW8ThHRGzGQ5x9CFzoieRdCp21Gt6iN6JWwA5HpuzFizl70mvw5gl94HU8lfYr3VhzAnlPFOKeKSHUX78f/T/AKYqWP/i5NsypdSVUBXBmZEyx41aDjIC4PsBCXPZIEbw4fHKbZXbXxMN5ZvAvDk79ARMpqAskYN3EtYV2Pnkmb0SN5K0KTtqHP9L3ox7hXXUHhCZvRO2Yd+sasRWTcWoK41txrQdsrZQNh3YBQtSqbaLlN7rlg1ucEsVqu1Ro9gFZ9WPRqDIlagYFRazGQYA+gNe6bcgDd6V53jNqKjlM3EuRdGPPWfoyetQGDp76Pp+M/wMcr9+Ms7+VsZh4KCnRn7k+W2L81OmC6VemK6XsPsIth/WJXvuQB50mvSaWf90ZSyW32t8AXudHuXEI8m2X5HN9SHLnrBPDJ6q8xafpC9H15LvonrTKwBG1oMpVCcFO28/FOhNDKtp+yGiFxm9E3eTv68jN9aJX7xKwiwKsRSeANYIL71wF2oPdOIsSUIFY30oj49RjJymAwK4V+09ah1zRZ+J3onXIQfWccQe/0AwhLYQzNa9PvRUxbhAGTP8KYpIWIfnM5Nh88g8OnsnCeMYHu1SotutJuiiPljQX3pa+S0NJY8n3ewo1SKfyouNw5v7/6XgPs4BV0gk9W0xVCIakeTkmP8/hRucDqp4X6cjXUsJj+b3EuCnLUYytr42SNOgV59ll9XIgL74P856ONZ/D8zFXoPWk++kYvwdCZ2wxAubfO/fWpXByruNZzgR18ZRKQnswSf4u83/HOpe+7PuENdpRV7kMX27nlLnZ28TNddrPa+vw69E9YgwEJtNzxS/BkwseY8dlmbDtWbH6I7lddZxfy1VLNNM08wxd48yVFltxKE8XQStssJpkea4imE9OMOVDEszjlBZD3nj7nPJ1Aeft9URXABi8LGEFWYfAKl4YsSAYxP6ouHmcuiDjBdWOFWWRpZfiqFdq8PJ5Dn+OfXtPcXPWjfrn1JCbMWYpB0xjjxi/D4Jnb0X/mHnOTvfj0WskGgnxHCebHp6/FqOTP8eKML/DG4p3Yy/BAllUJUJzNNCoi0gRZxxLWgjZ3mW8L3pNMdlWY+rw/wIU+eAsN2Bwec0qf6z0n/Y6scOC8/b6oCuBSC+wAVkFSoRLIngSvA1MPZIH5quDNzUZOVq5NpOeZTPpuNp+fyCzBnuMFmD1/PcbP+gKDpryH3uM/pAu8FP3T6MambEP32DLre60UCMyKawPd+tXoPW2hDescnbwQafM2YcXOkzh+vtjSTemjZDMVlSA7MwfZWfnO1dbLPF4kH8gady1Lq7nW7ugsroPc5ZPArwI4wIvfHwlgImcQl/XluvjKxWT6s8/KdBQLXh7lRptV0XdoTRj/ncwsRBZPJ3f5GPmev2ofxqXPx8CxszEsZj5GZ6zEqBnrbRxyr9g1CIldj550SQNBdTUVGMyKSW54cPRq9EnbiMEzNmNA4hJETvkQz6V+hre/3I3tX+UQPdZz/CfzbC5yz8vT4QtKQyovk3ArCwS378ik9kHpxbhefvjyhO8buPocpc9fmq/fH33PAZZYSGQ3DWQPZspbm0qvyW0uKOBDAawSwxLkO6gwyUoL3EP0GL/cehwpH63DsykLMGTaxxiVthyDEpciPGYJeseuQL+UDYjM2IGItG0IowsdCKqrqUBgVlSKzUNTdyE0Yw96pm232U/dp36BPlGfWd/xuFlfYuGmExe51WCoAY0+y2Vi5dHz0Rt8qfToAW0w8wtMb5dPeu7esyzQ+z7gL87P75e+9wA7S+tqegcrC1UJcSyminSUleBrBLiYPqEtrsHyRbQZkTlwNWZ4z2ngg1UH8XzKfPR+aTb6Tv4YT8zeiCEZmxCWsArBUcvRbdoqa80dMH0n+qdvtwapQFBdTQUCs6ISwF2TdqJL6h6EpO1Fz/Rd6G33tY4V1mL0mzIPAye/ixkLtmHX8WLr+z53NgdZp88yAQUvE45JbvB6UuLyZScHsIPYD1p/VQEc+I3vgwSvV24uAtgWfVMDDKXGqiJCXMSoiwVGS+BYAwzN7tekVyOpPlqxB8/EvYMhk9/AU+lf4um5GzEgZR26TF6CjlNWoFvCRoSl77Y+3bCU7c51TthgU/wCQXU1FQjMikoAd47ZhOCU3eg98xDCZh+0sdo9UuldpG5BZLoGiSzDoKj5eHLae0h/dwV2HDxnjMoaZ5+mJfYH1xPT9yKAlTelMPu/r3yTAufv90Hfb4CZ+So7MgIW73oAy/LayotU3nl+gK+xsKhs8RFO8mN7+fKWE0D064vxYvKHGBn9LobEzMOA+C/RJ24FC/cmhM/Ya5YpOGUPuiXvRvfkXTbeWA1YNn9XnzEQrp0CgVlRWbcW7yU4fiM6Rq9DR40W4/31nLHPQO6Vut0WFNDc4+GJi/Fk3DxMmvkZPlq6AwePaYE+JqvYZNpa04KnUij9PKNS+cN8aZ5+3/S9B9hbA9lg1hjeYsW+ApkmNp8AFxeiOL/AGmIEr1Zp3nQMSF+wkwXyI4yO/QCj4j7E8PhPMShhESJ8kw80GEPgdkndRx1gwd6HkGR1He0kOL7hj//gAHv9wn0T1/C5a1HXfYfQIssqS11iNyPEN+94ZMZaDI9biCdiP0b8exuweMsp101HaNVVp3zwpKg5lxVpofrcrYpVSwOhL8xBXi5rT1uAj16RQR44f78P+t4DnEOfWAVG1lXPCwlrsRqrihnvFl1ATra6MRy8O09cwNwvduPFjMUYlbiQ7vJSjIj7DEPjPyO8i9E/cTn6JK2xvt2QlJ3oxtgwIMA2OMJZsPJAXW0FArOiimAYMDB+JQYmLEf/hNUEeR3PudVGkZnXwfvvkXHAgO5JS90vdTPCYpahx4R5GBS7CGPnrMLri7Zi7V4391jtCafJ6rEsxsk0zeo8UtdRXkkWzmefRF7BGX7Cgayuv8zzp8wiB8rb74u+9wCbW8x/zuUUsJB4K0A6ZdLqahjkIVb4S3acQ+q8bTaEsP+kD9FvyicsvF/asjQDEpcavOoTdWOT/S3RHpPgDaUbXQaws8KBoLqaCgRmRSXrOyRuOYbGLcGgeAexRndp9JgHcWj6fnRO2IFuiTvQO2M3+qTtRM+4degZvYrhxhIMnfo2Js1ZiA9W78W200UQolpGSKuRnKY3pCEctLkGcZEG3JjNdrqgNbuqAA78xvdBAvjE6cxSN1oty+dYuZ+kuc3kYxWkjV+X4PWlB/BM6kIMmPwhhsQvNldwcPIq9J62mC4zLQ/BNTdSra82NNIVYklrUzn5lrsx+YYp8v1AUF1NBQKzopIFFrhD4pbaUcMr+9KVVsWkexTEArdj9BZ0id+G3tMPoP+cr9Bn+n6E0UPpl7yJllgV4psYMu0dTPtgNZYdzsHXTPcT1OH8EpwqLjZcvWE2+UXZyC9Qzsgncv32gfL2+6IqC2zFwMVgKhIC9xQfr/nqAt5cdQwvzV6Fx1O+RN+oz9B7ykIbSWWLwqVogbj1pcDq6EnxYJm8cctymQkswVXhLgX5GkNcHsrLkWJgb1y0ji4edvfsvIutNhFDc5mDNc84RY14u9A9YRtfo5cSp242DQBZyrSdh7CJ7+Hx5E+Q+Nk2LPu6wECWJVaeZNITyiXMGoHFYAclxW4xgUD5+n3S9xpg/m/FQdb3JH3lo/TQvibN644BsfPo6o19F+FTPzNoZWE1BLJ/Ki1PymYWUtcNZNP+6C67Mc0ElVbYPmuFevXFhZsF3kG8Ez2SnDvtJitcDNXVVCAwL09lEys8CWIP5J4xa22BgN7xfJywGT0IrqAWxGalCXFEylYMSNuMcKZzj0nzMDD2E0x8dy1eW3EAO0nwMeaJnGd5SFbhMsPUem0dB5fk6fdL33uAT50+bwCraWTDgXOIf3clhsd8iAHRCzAwhXFaBgslC1dY6jb0zdiJATP3InLGHusG6h6zzhqr1NoqiAWwGnIErhp2tCyN514OjBfI62y2jwN4j0H8jwywKiNVQp4EpCyvwFWFJYXHrGIFyNhYSlhvUyL7Mw7ul76L6bobnadtsbnH4Sn7mNZ7MChjq4Ung+laa+5xwgfrsWDjEXxFr1kekq1oQpo1JF1de8rDwHn7/dA1B9j69Xzy+v0qKvXdyv2VLD99mWnn8+bserLvOLdZn/WgVc2+7zTw3rJ9eHX6QgyL/sjisoiEZeilZVtTt6LfdBa26bttzeXgmPXoNm0N39tok+wFsBqrFOcaELTABrCvddbBuxID4mWFZZUIjtzoRF+Dlg9gr0Hr8o/6vpsCeLlHqTyUlyN9X/egxjnFuy4NeF6ryDRFcZ2FGhFqH9CifHFr0S9xs1lcpV+XKWsRlnaA3ssBhCo94raZtVYlODR1HZ7MWIveL7+BMXHzMWP+Fqzbl4OzzErlm9YSO3OuxOYVK089BSpXpfL7oPc5+6jv6L5fdrxU/MfvHFLZea6NrinALmHpGNlsINWvOuq5JsU7uZ3/yqQlxd2y4ppqVmxT/k6SxmM5F3BOHYr6swEZuUD2SfpcWXzMT2klRf6e5vVq0gFftRbPj7YXYuIHB0tBG8GYbGAqXb7YNegRvYaF1MFSXq4AXzx314CSG23uo5NzJZ07Wdbv6yByIF18vss7EkCthWXrYnlrP1f86NbS+u4Q6zp0D+XTwEuHgCr9njuWqSxN/NNxWAZj7amL0Hf8B3hx+nJ8vO4MDjHzFBer8j3FrPX6kJmtLFf8hyXFJpwUMc+1drWkaY02YkQfcvIGj3g86hz+R0/eABP7rvei397Ogcr21dLfF8CmbwbYveYBrA6GYnyVWWSDK/SKEj6H/lXu2eP0tWhWBa+UcxZ5Wef4Pfc5fX7JzlOIn7cVT7++C2GMz7pMXM54jdaCrnBfFiIV0P60sOULrb/8C+N3VaDzVliCzyD0gLxcVR7gyty/IHXxMkMLVXB2LlUEruVeFUIfavD0HRg5XS3WizFo8scYN3MFFm7OxDEWFQ9kVcpaFUQQ2x+JK8pV5c3KXDPHbCaZJBr5vj1VOTQGTR643tFTGbyUfkDweuIHApXtq6VrC7ClEFPEk5+bU/a5MpfZAc/MMAvruhC0e4ASnO+4P9a6F7wdD/i4OD+Hn3MNIOp82HbyAt5ZdRivzlmCyKh5iGBs2iN6HXrRdROwUm+6d3oumAMVXE/XHGDKc4W/qwKds6L62wLsYmo1fKnhcIgaEKO/RPjYDzBwwvt4JWMpUj7cYit6HmJ2eyDTEYMWEdTKH6X0yRp7spCKbxLoCwa0yhjfcsWu7Kiv+R0vBth3bp/8y/TV1rWPgb2ECSC9fenrZQnnoFfGFKAwL9Ngdc8ZHReXICe3EFnML2XscX500a4sTHxzjc1Z1UyZISmrEZG8Cf0Y2w5I34Whs/YjUgMNaIlDotYYyIEKrqe/C4A91/Q7KtA5K6orCbCO5QF2EPM586F37CoMSlqLJ9PX4am0VRga9QkiXnnNpiy+tWI/djAeos+FMywWZ1lba1EFcVZU5Lqc3BBZutRyqzUMU48NaH7qojJVpoDlUyeV/D5zLXWNATbWLlJpAlkilXt+iWiZFefmn2LGsA4uyjGI8/ILbe1lxcfaPnPZgQKkfb4PT01fgX7Ri2wARp+4lbb2ca/YdQasYJXrLMn66jUdAxVcT9ceYEHIeD35u8n1WX93iK8MwIL3mwEOTdqBcHlG6dsRyeuNiF1hlnhY4jJbJEHLFD2e+Ckmv70OH244je2Mj9S2obxXuJTLMqSicsEKUxF5zWOxyaYnrcpeIPssciDJ4/MD+mLxbR4Cl+urp78fgJVeSmMeKy6eQDOG8glxHrONtSpfsVbKr+lBb2WVPHvZYYx7ezMiY79A6OSFCI9fQ2u7zdxjQaqC6LnMOioeljyIyxdaf11rgJ0VFYzrfFBe7vHvE2AbuZaklu3dCFZ/caqv2yl5M3pGr0DvqKW0xqvx5KzNViGHTfkU/aMW4JkZK5Dy2R58visHB8mmQiaBrPJAW8si4/otighwUUmmD2JZZheSBRYLWjmYS8uuyb88X31dc4BLKzQfyFZRXg7I5hZlMuQ9b4uoK8MOkOmPNp7ClA+3Y3Dil7Y9Sb+E1dD2miqwnqWV66yYV26zpNds7WW5bD6oAxVcT9ccYIkQGIzf5UgFOm9FVdn7/yYX2h/gkKRdBrE2YdNc6gEZu60CDo9fh5CpS8211sCZgayUBiauwMCYz/AM4+PXV36NLazAFR+fYnlSGOVALkF+Sa6Nq7bG0FJIfcDK1fZkq7L4XvdNZVS5VTXgldtLy/TV1TUFWAmhmlHyTxBX25WXPsC3KHvoO2adZ+xrQ+yAc3y+5lAea+GdGJG0CMHjPkR/DXlknOsVNkEawcITycLTP3Ejuk9eZbB6rc8evCqg/xiNWIHPWxHpu4HOWVFV9v7LAPZ1s9m5ylxom/yRsge90tzma71Sywa+qHW6T+p29J++x/rj+6ZsYV5vRL/45eg3bQEeT1qIV15bilVfF2LH2RIcYwFRQ1c2y1wurbD+s4GZpZaVR5ajgBD7rLSstxuR7Vdu+bh8ub6auuYAy61RrejcGyVNgbk22otWKsrPIrRMQH2OLjOT2BJOtelpusmqWZUxe+gvvbXiIJ5I/gwhY99BWMwSjHhtDzNblqasxVWDKTSoQiOjJK2HXL5gVlSVLcBSoPP6y/MUJFUoOnqegrn7tE6S1nG2/Y8YM0p9CYDk/7qe90vZhQiC0J9A9E+jW3qNu5HK+soDAewNEnHy4mK97z7jPue9pnPaQBp6XJolNiThM5skkfjJeqw/nl86rlrdiOeKC5FNaLXCCv+3P1v3W91NXmu1Vh61Dc4ldWGWAcx3Td9zgJUYbrlQt++7sCSVfsrLU3LrfQfu2fwSnOEDucqKcXYzjT/YdMa2wxyiubkpKzF8Jq1smhs15foT3QghFRINZ9SADU2DGxS3snR01HdRZQuwFOi8/vI8AsEqaPVaqeufuouFn8AmENT4HbZRWXn1oysqeZ/prV0Io7egx7TNCI3ivV9LgO08DuIygKVyDVk68h68505lVtqDW9+xcxJiLaygVTKHJy/C8LiP8FzaPExfuBEbjuYYyF58rP5jlSuVL4Fsi9IXyvoqNKN5uAhgjUdwtlutLVUAlwLMmIS2tAS0tjZGSkkr5fJ5Pj9RYLVlFlPYq0H38mPLD+YjZt5ePDV9A3pNWoCuYz9Fr5jVNtZW42xDaHn8M1Y1vayvRl0NjdM45eV/9wD7W1wPZslgJnwD6GJGJu9lgSWoCbtMetw/yb2uvY509KTXPUUkajDHtQNYkhU2XXQuNyJL+eZA1rHM8vrLA9p/dpdZdoN4NYak0hozLh4w9QOMSvwY095bhXmbj2E7CT7JcuTcah5J43kyawv464+xmm2h6g0wYrwsgFVePYClKoANz1wqC/kXMlFUcg7FF85TWdZaqE8I3jMFJThNgDVPdNNpYM7yPXh+1jL0mrgQfePWYQDjITVEaXvM7tGb0SOBFih9b2nGqnCopte43AEJbpyyjn/vAEuC1XOZ/SEOi2WsHsPCOo1A05pKetwvZjMi47dhIK1zRCzDhm9QvzhNCQz8mxXRlbh/7xyBz+UNrfwWsZK+SHzNO5dZdnpZw9M34MlZGzA86UsD+cmkz5C8YCc+25FlW96oXAnkTB41bsAW6mc8XFzkLK/rkHIjALXIvExKvg/iKoD5X74SpUQQ+1oGLWlY2zEO0UgrvaIO+h0E94P1JzDx7XXWSBER/TkiE1iI47bRkmzHgLT9GDrzKwyafoiZuRNdp64rzVQrLFbbM1NZO5t8rlugwlkRBS50l6dA5/VX8JRVCJ2mxeBdRePFwxYbJ27GoOQtGJzEI+9jINNC0vMhfH1oylYMT9uOYanb7LFe1/uRcevRP3ad7XKoKY7lf7OiuhL3X17eOSsqXb//PVw80myLayeIW4uwmOW2H1VkzBIMTViKx5OXY0zaUsxdcgjrjri+Y7nVp2iFj53Nw/kclkHr2ywDuOQSgF3LTaCyfbV0zRuxrFn/gkB17olryNI7dGf4j6Lir+kua3+h9E924LnpyxA57TOET/0cfWNXYuj0g7SqtLTTtjGTtpmbOChtn7mHvWIIN11EZaYgVgumm7+7FSGp7qhM9i+UlyOvEAUqiBVVoPMGkoCV9Li0n9qWpaFHEbcCAzXAIWYZ+k9bir5RX6LvlMUIn/IFIqP5Gl/XMTJ2uX1On1f8bytoXHOA/awpn9s5rXHLX15DV9lRr+ux2jRM8XzPdy+W3z6L3C9tjzXyabistmYdwO8NSd5EkFehL8OuYTGfYtIbq/DemqPYfKzEDIVwVVycz1jYRbrO+pYBXAbx9x5gNR6ojisocU3zAlfKo+k9fb4Q+47m4oMvd+DVlE8xYurHFrsOZob1i6cbSUD7x+9ipuyju8iYLpaWaSpdyWnr+RqtTvoeZqrLUMVRbqG53ejMTO1EyLUgudzr8gWzoroSBTjQef01aDpjWYYGsroeuJJc6L5xa9B32hcEdKEtEqeF9bTkz8D4Lxj3fU4P5TM7RsZ+XnocEL3QPq9jRMwX1zyEsKGS3wCwAHVyc4v9j3pdj73ehIFMi1KIVWknaO2x3eiTsg/9Mw5h4MyvmY77ER7L34laj36xBDlxPfpM+BgRE9/C49HvI/7d1Vi976xZYpXJ7HyBK6Py/2uAyyYbfLsu/a663wSwQcx/5C5rCOSZXODgiQJsOZiN6Nmf47n4eRg65UMMocs8OH6V1bjKqP7JjPFoaSMTdiOSx0GMdwcTUmkgC4TXRaTCUQbwHgK8rxRgve7vcnmFU+CXSW6aO7r3vaMKnPdd931vgIQGS2jPXhs0UTpwwv/zrDhY0Ozc5Qqq4nSt4mGLxNH16zPtS/SessiW9ImI+ZIu8RqMmbsFL7+1HYkLdiNj0R7MWXYIb605hvc2nML7G0/b8d31J62FXkcNbJj+xV4kzNuCqe+swbi5S/HiLDXmLS6dSulUtoqI/zI5kmcRPXA9lQHp7v3SbU3dvSsfyu7ddW/1lnwAe+fzfqcsXRysLn0ufs08EF6vN9+6FGA7N/N72haExG5Hr4RdBnRY/A5rje+XsAMDU7YwpKA7nbYET6UuxhMsZy+lzcfchZuxnYbDBXOuu8htqOY2Wrt4u1Nvi1OvjNMA+WTdywTc+ZSC3X3OvVGm8lxcjioJsC5KN+A6uc3dUMzgp/w8tSrLtpbYGkZ52g+Hf7x0u/7CAtZtJFcrLSix9OkNXxci6SPGcpPfxvD4z5xVYUIP8DU8qZ9PhdsmiluBcgXDg6oMrrIC5tX0AlarZ/jLtXK6gqTPC1bB7/bOlVRY9NxXQFh4XCHjZ+N3++QsuRvauAa9UlejR9pKhCQuRWjSCp5/rQ0FjEjehf5JdPFj96FfNK1E1HIbfKBVKAYxLouIWUQXeD4GRn9ia00/nbEIk99bhzkrDmLBrkysOlKMLWeBfUxGenyWXhd3vF0sF725x9lMb+0qkckydJ5Zcpray3Ot2l+Idwl40oebMXHOSjyTsghD+ft9Jn6IsMmfMHZ0i/fZkrnxaxESv842JA9P246B9BCUZlppslfSeoSlaU3steietBohTIce2lhcFZlVXtstrSLi9tALoGWM3eMD2QO3vBzIBrOle9nxYrn8uLg127Pql6qsvPDaohehD72RQUlf4vGMFRgR/zmGx8zHhNdW4a1lB7DvnGulVhpm5ucjJ9/rgDqP3LyjRDKbpT4PxSzrYoLF3IkPZZjUmsN3eVTrteuGskEjig8Ni0BcVVxXCGDXRyaVFpnS5vdCa80rKlSjAC+af/pXfebZecV2k7oPTcrecjgXMz/djGeSP8MgxibaFEywatVHFR5Jj9XHp9dVqAyYUgtweRLQBrF1RThroIw1gOO1g30ZwDqWAVxWWPrG72SB3FkOYBbmFAdx3xkbEEaL2YsVj3Yl7Be32VqHh9HtH5G0C6NnbsbIlKUGbJ+J72HQtA/w6uvL8cbqo1h2KB87M4HDzPNTTCMVHa/bwytUSrtL86VM+vMel5TQBmjUWlGRqYCF6BSJPsGTnSDh2i7mMB9v+KoYH64/hozP9+K5mUsxKO5T9CDMPacuoBu6FkNnb6NbuhGhMSsQFrueEGgyyHpEpG1Bv4zNvPd1TNe16Jm2Hj1SlRYuj8zjYHr1j92NATF7KFZ8fO1ScCumMli/m5RXEby+sPgldLmXIjJlJfrRw+kx4RNETP0MY9KWIeb9zfh4/XEbW69BQ0rvc1mnUKgJNMyRIlah6kVxxosvCV4Wao0H0aohAlgjv9REK9f7IoCFyz8CwCXFjBaKZaF97jIfyF3WpzV/88Bp4HMWmDi6dk/EMfGmzDNXMZIgqJb0XDOpfEuyngfKnIrI3yIHArhUsr48OngvLjRlVsD/df/anq8nbLSWUDW6qSFJLaEDohZhwJRP0evFWXTdPjLXdj5NK8uKWVceSltGPWiVmjZxnbWfV5gqE4PJA9KSNDqP8kIekM6r39P0y3380U0sp5/szEH8gl0YlfYFwie9h14TP0B/DZpJW0V3fgtDmK3WJqH06c37DI1ZhR4J9DgymMaywD432sW2Pg/Hl7Z67AF5uaoswLombY0aErcc3WOXoR8rHO3npK6n8KjF6B/9he3rpCWFtUHb5iN5NlxXaZTL8px3IZf5cp7ppvELBFP0qoBTNpCLkKrP2G1NHgBg+0rgvKmo/sYAF7i+NCtmvCHeX2Ye6yxeuFdYlm07i5mf7MQzCbS4kz/CCFrdUTMZm6Rr2VFmvq+z3obVETQ9d40egTLk8qSVJNUqXepC+wB2semlcrGVA9Nccn4/nG5ieLLzBKwwWey1m9DSPYz3DZiI5/en0ZOYSminzcfIhHl4Nv0TvDrzU8xf/xVW7TlnrmxpfySlgnKW+azlVG2SukTacgsLkMcK0TUBUgHz5VJ925/GlWfn5OFsVi7O5RQhk0SrwpBO8LFszTFqK6/x/Y3HMeXdVXgy4SMMnPw+RiauxYDodegfxVhUW6ioz1r5FkvLlriRaeWrfK0tQBUuxTRzHpWbyB8IzoqosgCrYumZuhFdGY5JYaxwBsxmnk2nV8XXtUFdpBYljF1It/pjjJv1BRZsOoqTvnw6dO48zhdns7RnGwMq5/rfINaRf4qdXYOXa/gygBUHezXn3wfAsq4+gP3iX8kmU/NP9yR4VTiE9HHSq4L7YuoijE5ehuEJy8wyhUcvt7WotPRocMIOxlH7EJziye1u4FzespE3gTKnohKEBqOdR4C6BhZ/6TWvwcVVKD6rncJz0O3qnbrc4l6zMjZkcR9r8UOMcw8g+KU1GMbXXpizx1yyYVPfwEvT38X8rTuhkUCqxJT1khrwspg453OLkZVbhJyCYqv4HH4qEUy8C/Jo+CHqgqZPMg8C583FCvynAsf80bBBzerSY56v+EIJ8mjls/KLcZ4vaYK8KhSvctEyryt2HcNri7bj2eSlGDZtOQZNWoqhMWswInkbhiRto7fhWswdYA5gL6zoxfTqlbbU0s28KR+Ql6vKA0xN34bg9K3oRve/e9o2dEvZhq6siLoyNOgRz/AgbhWGZmygp0HvKepjPJH4CWYs3oNNdI+ch6QRWSr7Lm9odmlZ+Vgbwms0F9nQfy4GFivMZLk+AkK6tgB7rWteI1YZuE68Gf6p+GiZE8GrAiu3cPHmw3g5dT5rcSp+NYamsMbTfM/YjQiO2YyQpN3onfE1gpMPMVElwkCIS7co4fsaZVVZgMtUBnCpBKN1R7guCf2e5w2oRTuUAKtAegCbi8jP9/U10gyM3oOn0g6hzytfoOczb7AGX4J1X5eNxT2UeQynz59Ddnau7T1sCVUqVwAuaGdEbwUJmzqZw0MminLPIT+HZ6o0wDy3bVGiZi4d5RsxL0voPfnCHnXxnc8twJlcOou0HMxZFkiXl0u252D2wqMYm7EOI6Z+gcgJi9B3IuPJ6A0YorHadJEtzPEB3MMa95YjNH0Jj0vNIgeCsyKqLMCqgEOnb0f3mTsQPGMHuqRtR0d6BB3iNtEib2b+skxorAArmYGp621YZp+pn9CLmoeMJUexn4mjYb35PgqsgtW+x7n0XZRvLP/iwht+KZkv+vcLMIH1g9esA6/RH165iUt3nUbUG4sxYMIbGM5MVYzZO2YDwpjZ/TMOoP+sI+gz/Wtm9iED2OmAWWOtp6wlWSVZxMoD7IurrTD4AWzg6jfcb/VKdOs4l85T9a0FrQYbB69zB+Vq94/bioGxW2mR6FKO+wIx7+7Div1udZCj9IeP5mYxLbS9pqBRmjFxSuhs5WURzEwmHz9o09j4no4GGZEx6fM+2XcrBrB06Z8qCZ6zmL9ZeBZFeWdQmHsaxQW0s9Z+kY/sLNkZXh/ldYjkFeSa1I4hN/tgFvDFlkykz9uF51mZDZmyCMOiVzNm3mmNfx7ESqseqWsQqtb5jKWEWBXftbXA3Wk4ZIFDCHJwOi0wIQ5O34Ee0/eit6YqztyD7nG0xrGrMYDxsrZK1SICY+ZswvRlX2Efs/C0GgSZDpae8ma0q6XSUJvDkwXx4WYwMfWYDZYVeuBToLyqqK4QwALVK1gXA6wpgGcYVymjZXU2H7+AqDfpMke9bbv7DUvdhP50SfsmuilxvZN3GSTBcTvQOZquatK+UgleWcNSyCweDZw5FZXBWw5gz+I6eFVhCF5/gJ0VtoYvnsPAtX5JTZZYh0FxqzE8dilGxi7Cl7u1kN7Fk8rdyLNcpptqap9KZ774IFVBKFQB4GNCfKEo1+TmqCqdCdVlwBtI+n5JIQublt21ykTS79M9p0W2zcP4XNM7taVnYYE+x9/2qZDXcjInt9S1Vry8ZGcu4t7ZhtFxBDlqGeNHjZJy3T+yZNZCncYQKX0lj/RerinAm+gFbESPjE28FoZsaZvQnTDLlQ6mYejEEKArrz0sfact5t83SY2Rro98YOIam/228kg+9p7LYyzsrYjJ9Cthmmo11AtML6Ul08pVgXyrHMCB8uVy9DcG2N2UWk6V9WoMmfjaYjyd/hnGZCxB2OR5TAwNyvC1RlojkYs1HURl0ut63zUwuZZhKxSVyEBJ8ApAD+Cy33bwdpu2HWG0/H3TDpol7pm4A+EZe6hdfLwN/VP2op/GYkfTAk9ZirAJ8wivi5O2scaSi6WKy4eGy0SmltJGABmMZmX9pdd80mf8QPXle6m817+bXL4FVlnDpNOlr2lkUnbxWT7K538lVkHpfg/whudvyMSUN7YjYtwCjGDl9uSsvRhIC6f+4mDGlSH0WNRH7NL/UjgrosoCLO+rVxJd+uSVrJhX0aNai+7JvL6k9Xy8BWHTWe6onqlbERy9Ft2mrqBnRld6BoFmZdRz4nyMf2sV1hzJsTxW/uYwtMEFwqvJOeePMpNUKZMR5pXarVye8e1y+fpddcUAdvBKvgJoF8eKiNd6IpsxFI+rDhdgTPIneCJtiQ3ni0xaQRDdqCpPpRnkg9XE53rPG0yhfllZOsEv+AJnTkXk4FVXVXmAPcsbOeNrdI3agi5TNiIifT8GzGQcHrseIXQRbYhjzHaMIODD4zdjcMyXmPLeZiz9Kh+HaHEP5uZZB4O6EfSfjfVWovA9SxhJXQqWXp6Ulv4Z6zLdCgA/rkLAT7lGTN/rZZ+9PKki8RzjS+XytbwEshcyCdm84iP87Ek+Yyx/IccqKlXWx1kMNn4NvL7kNB6PXYauz7xn44+fnLMf/VO3oVf8egwgHKX5/R1UWYDlEfQjtOEsh70TV6JnkgM5JGEVusSuRGdebzDLW+90Gg+51fEbETKNn2d8rNlvWuq2w3Mz8UzGpzjIzDlOaVNyS4FChh6FhNkqZFfxevnl8kz5rPJQOYivAMAO4m8CWIXu8Nkia7hJmb8Fg6M+wtDkpehKSzVkhoY7uuFxnrxhcmXD5Tz5Bq3TfbHhc9TVAHjQzKPoFrUZXSbRddIwzRm7zY3qHb0UQ+j+DYxiXDRxNZ5KXI8Zi45io9xl3qsqLMW5eXQuVbjdXGfWxso9gauE0ZEwu0x0cunpy3Dfx0x8LnAl1fR+3YiWD99F+h3vnIF00e/zs5IHvbtOVU3H+OgIb+UEsgqPIZehgVkiSnm+jwnx0bpMvJyxFpETFiBy6jIMS3azpfrGMY/lefmAvFxdEYAJa98Eek7xy9BHg4TS+VrGZvROZWzM8tWL7rQau7rTePTkb/VN30VvbKeVhwee+gC/aP8ifhf8LObtPo8DLPqa1a6hG9mZ2luRIJsnxTyivGWgLM+YcubJ/H0ArCvyQWwXLLEw8mVl5jFWy4oDn0ogtIwbwqK/QPeopejPeEPwuMHp3ljXbxBjjrIxwk56XS5YoMypmHzxLzPyUoBdDBwaq2Vs9ti46/CYNTYYYwhrba38MSh6MUZGL8dLyevx5pensJeBoArt8aISnMyXa5nFwn6G6XOGKaQo8VKALUP5wEvHi6FxMpj4OR1NekxV2gLrHN45v0Hlr8Vf1kVSohna0ik+O4n84jM8FthgHeuC4j2qMtt6DEh4bwcGjPvY3OqRcWsxMqVsvPp3UeUB5m/HecNyVyM8fhXCEmlhUzV6bgtCUxkj0/p2J8CKiXuk7SbMu/DouJX4nz6z0fjBl3Hd/c/i5gdGYPScpdjNRFH+K6TIzCoHsPLaD2IXhqit4VoDrELES/kmgLXA9jle9Otf7sbAye/iiRnr0HXSQvSbvgNdGQ+5GEgNGU7+MP816fNXEmBr0faLgaXuU+iup+7CiOl7MCCWmTx5IQZEfY4R8V9gdMJCJL63Cav2Fdg0tPPUad663EgWYWTmnGDKuHjIbJK1DTjPxGpkHh20Gijv5IFs7/lksPg9v6ggmALnzV+XO4cHZCBd9LvlxevML1TU692jJAdaKaBOE1ZZApgnEsj7+dG3lxzGmJgFGD7xYzw/fZPPiwoM6F/TlQC4H135waxIBqRtRc+Y1eg8ZTm6Rq+yvuBO9Pw6J21D9xl7qf14NGoDfjP0PdzcMR71HppsatRqMn7UcQL+MmAyVrGm+ooZq2GThReEMtNBIZLQoCxaKgVYjVua/+7Cqu+qKwewXZWu0APYvadRV4qHxk3/DAOnfIAnZm9El8mLMeD1Q2gXtcaa8i8CyeTg9FT2uiRg/XVpxlRc3u9657kYYHUl9U/ahfBousoJ6xm7b8RQWt1+Y9+ly/w50j/dhr3Mp1MsoOp0UbHVaCn1m2rcsdu6w0sPyhfzeBbXuaIC13XwewpcKwtU/gALgL8u/dzlyp33r0q/VV583f3xie6hJAdFRWdZDAS1PI5sFBZlMU3ykMOPCO0TTKhl284hatYS9HnhdQuFAsFZEVUaYH635zSGZcnbLTzSXsVaR62nVnaZdcCg7TbzAB6K2Yw/PL0Q/xQ+B3XbxCDogYmo/Vgsbuw6HQ3bJ+PHIUlodN8gpKw9iD30vjS4sthKg3oWmEgCWEXBA5j57uD9BwA4ly9t+zofY+Lex5CYT6zhKpSZ1itjN7qwdlNnuWIMGxXjTT1jbOkBqtecXMe7NyHfJiHw6CqA76pvBjg8wQE8kG5T+LS16DdtGUalrMbTqSvwUsZyzPnyILactI4gnMo/heNZJwiikOQ9Z9P+atqPTBiTwo5MByWIA9ibkqaISa25cqcUEzm5tgTlutLTJy156i9bQZGyc343WQaVnpuP/WXv+UvXX078mvdYWV5UQKtboC1uTqEo/yj1NYqLNKrbjRU+m59nFZ3i45XbjuPZuI9tCmMgOCuiygPMchTF/NeCgPG7bNphz/R9iHjzBHrO/Rqtk3ai2eR1+JfB76B6m2gEPTwVtdoloUGXGajXcTpqdZiOup1noWHnJNR/4HH0Tf4Qe3lvLohw85C8dAoMsEuXQHlTUV2xGJgPeWX8xytgLIQqt8qwxVuPYHT8xzbpPHji5+ibtgOdYhhrzNznANZ4ZD+IL1YZuP7whhjAZeOivYy8nKPA9WY5GcQGr+s+6p2wzyDWulMDktZicNwXGDz1Q7yc9jk+WHEYh+ktqiCeyj3NLGChZY1bqAXDtY2l0oJJoE0jxKOJz5WZZQBrd0UH8KXw+mQVoXKdR4PV7+gBzPMpH5T2l3ssrSC8PPOX/a7k+6wnvqT78I75NDR5TAh1T9t9282qWqNrUqzBomeQX3AcOXmnGBdr8IoLq05ml+AgjfSI+Pm+qaJuA3Q35twbSMP8YP66SrqsshW8NvvLhrn63rvMo8qAzh1GD6t30h50i92G9oS5a8puBM84hAembMR/jfgYDQhntdbTEPRYDGp1SkeD7nNQu9NMBLVOo1JRp+sbqPZYNH7SfTKaPxGPQ3bHvMcL6udnovjSzJJa8Ep86e8iBnbun8TnXqaa9I9aKBkH8tHry7ZjVOIXGMiYVwupaeG5sJSNhG9tKaTfZkm990ulTPVJGSJ5NfLlHBVH94z6FMNmrMHw2dpmdAdCYvahT9pJ9Mk4SZdqJyIztiAy+Qv0n/I6xsS/ho+WbUW2yijvVz0GLh18XSulmeHeL6+ytBPE/t8JLJfryu1vOXoSbN/laI95rgpI137xkV/Xfdm9SfpH52QClY4HUEF1lZQLEZxn5lXuX/Ojr876AL1fmI7Hk1dhCCvQruO3oFvMXoRNP4Lg1J02TjkkzY3isoEfhFxziiU9VmhlffkBjqHTViMscT0i0+gmW6Mp4VVFQaOgdpgucevRIW4DuqfvRu/XDqMtz/ebke/RPY5H/XYxqNshAXU6JNHaplHpqNlhJjUb1X2q1oHWuFMKrm/9Mv6nx6vYyLpL0a8WYtQcYZcWyk8emE6+pPRLw8qp0gC7Hk5eoAqpckUiwHIP8mlhdDNzVmzHiMTlGEB4+8QRlLjtdDfWsvZbZYkcCNqKSiB+Vwng4Rkr0T9+kS1PoyVX+qQcQ5eoA9RehGvJnfiliEz4GOPe/hwLt+6l5WB1pXuVxZFUXgOkzdWSgfhd5YM30HmvhlTxa6GadYcOI/n9FRjByrTv5NUYPuMEBs06g9ZTtqELQ5gu6VsQnO5GcMl6yvJ6CwK4bijXVhJI2oZFAKvfXlL/sxZW6JXouol6z9mLrtN3oh3P22LSMvxyAC1sq3EIemgsGnSK9wGcYgDX7OgA9uCVgkoBfpUAj8VGel0GMJPWAexVYs5V9gDmbZv40kVpcrn6ngO8ASNms0DEL0GP6FWISNmLiLQjCJm2FyFRWvVxK7qP/xDPzFyEjzYfxAneo7rFeHMoyWIa0A10mXBp2lwtlZaISijQea+GBLDqQDncmmv7cvpiRE76nJWq9j86gLYT15oFDk7VIoSbGEo511cAR8TtRn8tpJCgYazr3NREv8ZPz93WAv99+P0whl+9EjfbSiLy4rSaSNj0XeiWsRN3vbwQ/9IvHTcFx+L6ztNQt+1k1GozBXXaxwUAeDqqdyTEVDUqqGNGFcDlobwcBQKz4mJGJ6+x1SXkUvWM1drLuzEo/TCGMBbqG7UUo+g+v7nmIPYS2NPMFLWqC2DdZ95ZPvkHBzjQOa+W5E5nF2i+LONGXs7CLacQ9e5WWuFP0WXcAgyaqR0XXJtH6Zxthk1ymxUD2zxr5mF5gFWmrE2D5UOw9kjYjBDCqzHNEXMOou+s/ejO87SZtg6/e/x93Nw9DkH3P0+r+xKu6xyDG7ono1G3JNTpGE8loFbHJMKbguqd0ghuOqoxFq7WabqpCuBrCLAyuacGqGdssz1oe/H6wmK2YEjSDozkdY2IpeXdeAq7eROyEhrTrTmyBrASX/daBXAlxCiEdaCSUfGwGn9WfZ2P52Z8juBX38CoOcqnssZFr2tPrcd63YNXuxN6ADt4XS+GWdqMXYxzN6LNlDXoSvDDZh22hqo7xnyKf+qRhnptJqN+xxhc1zUBDRn31mgzFUEPT0T1NtNQv1sqanZKILhJpmqdU0xBndPKVAXwtQNY3+87ay+6JGxAcPxm27pSC8WHj/sMT8YtRsqHW3CcBUyLfWtVDLs1qoB5osZmgaz7DpQ2V0v+MH4XBTrn1RPTjomaz/TNylfHihvT9cm2g3hu1gL0m/qhjbizFuf4fbZQgnXvMe/cqh5la6UFglc9FjaCavpe9Jx5CO3pet/1/BL8W/83cJO6ftpGo3bbGNSjlW3YLQX1OieiBl8LeowQt4l28HZOQLUuFD8f1MWnrjqmONEqVwFcDsrLUSAwKyq5Yz1n7EOnhC22/+yg6TugBc8HT/kEye9txJbDGsvMzCgoQX6B6+OVZDVymS+C+VoDzP8rqUDnvDqyQsx0zCe5uXkFyCzKxXmm+NdF+fhw0y6MjH8PQ+KWWrnRKp594g4YwJb3vpVQ3HJGDl5bNCBZsbLgdcsId4jdYssHt+P3/vLMItzUlVbzgQmo+WgUrg+ejgZd6Ba3i0cQnwe1JtCEsn7oDNTqmoogxsBl4CYQXH/5IK4C+NoC3C6aGZ6xH5G0xBrYHjl5HibOXoZVO8/x+pkROaRVCU7lZGUjN1cd9O42tVCBMiNQ2lw9eYXguyrQOa+OrBAzeTXvXU/Ul55NRzqbKb8vOxMzPt+AkbELMSR2na1gKYgdwLSw3rI8WsrIN/DHg1e7bniL+IfMOIw7X1iCH3QnuA9PQnWCWq9jMup2JKCtExHUim5z51TUDxa06YSWrxHcoE60xl1TfPBSF8FLdfNB/H0BeGTSCgyM30pI1HenRcPWo2+qpnJdYwucShc6djOGzNyFkHEfYUzyAqw7VIhj551rx1vjPfEfGzjhCp0ygOXOdK0BLipiLjDNJesZUj6ogJSTXr/kfR0CnPNqyQqxV2askGfy4Sna4HMsPcU4zZej396ALk++hRHxOzF69klW/lsRTkg7EexuyV+id8ZG9JmxA2EZWj9NExB2oAe9Ki3g/1jMFjTuoP7cONRqHYNa7RIM3Lqdp1uLcrV2Kb5GKVphSkeTF+uam/wNADNergL4GgOsxpAeCVsRkUF4J32GgdHz8frSfdh3psRm07gCJniJqh1doVMGiG3pWgNcCqOfBLMWzC/IL7FL9wfce2y3RPjtFOXOebVk6ctrMtkSPud4+ZpbfIYQF9gspo1HgXGzNqLHc58iIkpL126xQUD9X9+G0Iw11r0UnLwZXeI3oXOiVtXYg9b09H73+Ee4rmMsGnYgtHSRBW/NDskENw01OmUQ3OkI6uC1KDuI/VUa43oAexB7rrSOeo3nqwI4AJgVVSAwL0caKjlqNt2tF97ElHfW2JRAzShSGtv4QJX0QuaGzd/jaz6A+aqyhE8Dp83VUj7jc60/bA4Cr01HLYqo13Pz3OLtem4VDa/ZX67ykQKf+2rICrIGlFhrg8btafrlOaZtnk0H0Bpqn27KRL9XP0Rk9AoMp7XtmbgOg97aiw7xK9GZVleTDkJmHiC4m3H7c4vw8/6vo2H7WATdNxa1aX01kqp2p1SDt5pc5w5UR0LceYYP3ksB9qywk1qgHcT+R7PSVQBfO4A1CGBwwgbbMG1M6iJ8see8FSEVJd2IFphzADOVRawHsGWHu3elQaC0uTpi5vOSvk2C11vlNBDEdo6Lznl1pfSzIaVMddcOrQH+boy4PJxTLP+7zgLxH23DiKQvWX5WoHvsCoTP2omuqdvQbfp+tE/bi5ZT1uE/R3yA6zsnotqjk1Cj9TTU75SEmm1pfTumoE6X6Yx1GeMK3nbJdH0zUK2r+nIDwHsJwGUgVyesZceUKoCvJcBammcka/F+L72Jj9adsH7I0zRh2vJUxNqyrf4z6f0A1jqEmlH09wCw7Je/tEKttvXIoQut57oFbR6n13K1FxWPem5AmwKd+28vV34KKM3MKpuV5cYOK41dmKJYeOWRXIxKmY/OY9+x3RRCU3ch7LXjeDhuJ/77yc9s0kHQgxMQ9MgU1Gbcq8EX1dslmmR5LwGYr9XgazY4gwBeKhcXX6wUO1fZUf3AVQAHBLOiCgRmRaV1tZ6M+RLPRH2AQzS2GqxxIluraNCyajaJLaDuuyc/gDXRQOtBSV7GXAupIJi77JOgFLySoJV0+Z48kL3PaqcMnuaS814tKZ3VUZfHdNTC5/6TYnTU/bH4G8DaGSJ5idaiWoRBc3bikXGr0GLsRvyoz+uo24VQPjYNQa2iGecK2BTUYLxbvT0hbu9gFLwecM6FJoD2WnlwPXnQaghlIKWbqnX4ngzk+HsEWHvKvpi4BJ+vOmZbmFifb4mKkqYGCmfejHdfHsAqXLIQ5upVfj5nZaSCoLLASzL5w+u9Zjs80BILWv/XDWZ+lqe55LxXSwI4l2mYTWkHPyWxpttZSEzp/nL4zomiLGhi4rqcYjz73gY88Nz7+O++b+CWLrMQ9MAUBLWJR8OQWWjc6zXU1uioVnG0skmoHzrHwHVxbwqhTTX3WODqqNccrG6klST4ncpA1SykS+XmA1cBXAmA3bTAshUt/SVAy9a4cmNo/Yfgae7p8NgliJq+hNfJBGfpOZstV44Fvug83UzCqZKk+/IVKJOeG8DfvqKC3OwKyTLQXwHOxde9pFUh91rA1chzhtdE7xL7TxVj06HzWL3jGJZsOYwvNxzAog37sXbXCXtd7x9lDaXljbRehpa4OcOTqdLSubz6yV2Pfpcf8BffKH8teuw/dVBpoTKh+/I+4y93bic9UeyrMiILrDKkz6gceZJF1s5+x/nvYb63ixowfSnqtxiNG1olovbDyajdMQNBbRNNgrVmFz4nvJJZTz43gPWagNVnLPYlwO1ppUsBdjAHAtiD+GKYp9vEhiqAKwNwkpaZ9W3y7LdSpVaxFNzaCiU0ZS/CZxxG+2kbETF9HwHegG6vfsJ4ahVGTnkPOw5m4tjJTGu1VbraXV1g0VGh1XNLYMpXqNxz3r8yhPLmexrUJp2hrAALDH95r6tw6ijLqHPyqamEprGAQWphvrY2KUZWdm7pgH818ahrRbsGLt93Cu+v/wqvvrEKz81Z4xbJT1iIwdHzbQ+fgZSOA6Z+ZK8/PX25fW78O1uQ/OVRLDgAbOZ5NHRRLupR/sDJfO3z47uUEsamOfw1211A98iAIScPZ7KIGz+ga1EhVaMTbB1O5bQWKRCUrnKRD6PPSXpN92sT2r1EUJnheYvzc1CQwxjGto/RRmHZyL9wDqeLzvDM+QQYeH/3UTw4JhEN7huJho9NwU2d30CtVpqb68WxlZHgDfR6mQSzd/TAVh/y92Ys9N8CYFlTAau9lTwJYgewVvDYiS5aYWPmUXSM24aeKTsQkbwBg+KXov/49zBj3kacZkoXFgot96f7Ejg6es+/TQ5eFXAHsGdZlQwetGUy5O3oAcwDcmj+z57KIrTKUSZhUYnrw+VjZr9Zya9Iw5e7jiHl07V4YcZ8jEx8H4MT5qFf7CKExy5FWMwyagn6xK2w/ZO1l8/g9PWlz/trvHDcMvSM+hK9o7+090fP3YSX5i7HhxuP4jBvQ5WDFuY7mZWL/EL9sruLkkIClp+tSyu9HrXWa5tT98gBLI9EpcFCEUpol0LMW8vj6dQH7U7LF/T9Aj7hw5KCXBTxd1SFnC04Q2/htDUqbqVX1G9aBn74QG/c/PDj+FloIq7rQGv6EN3ddrOuEMDfXVUAV9oCO3e4zAKvMRdZLrMA7qwdDtMOoHvyLnSPWY9BKevxVMYaRI59A9uOufmo/n/eBtjeX6D79pdnfcsA9uRB6i+3eolbfdJ9/oKGe9mUHP4mC7QssDJYV1AK7o7jSPxoNZ5Jm4/hCbSucfPQc/K76PDymwZtr9hl6B27AmHxK2xp1D6Jq2yGjjZD134+g6ZvwqCMzYhMI9AJq9EzZilCo5YgbOrneDJlmS3QN3bGUry9ZD/2kEVBJ4upmVf5xbS8edm+5XBc2/u5Iuarrf+s9nrX/aOjrK8qJ123JCtsR96PPA1ZX77NB3yiXStLaK0LNWRD7c+sBvIKcJAWXuAe4GefSPkATfq/ip+1eRzX3z8SN7Udi0btJlv/btAj03B9z9cDQnU1VQXwFYiBPYid+6x1lTQX1AEcmroHHWM2o3faHvSIXYsR6eswLOZTRNH1PMNrltGzFSR5P4JX1lhH76/8PV8qH4iXAOzJpZO9b5lYdlTGFpyhEys3VQW6gHjowN/V9qtaSyzxwzV4JvVThE14C70mvYdh6Svw1FvbMXzOZvRJpmVlhdRfI5MoeReaXqeF53tGr0CPactNehwuz4TvD0gjyKlqB2A6xa7EsLhVGBa1GEMmfYonYhZi6mtr8MHKr7D9eAkYNpv1lCXNLMljfhYQyGxkFZ0inGeY1Rq1LJdZdtOT5204ZeVpnTAVCpVWUcxXtf9TAa11noZMuhFXB2mJtZvFUT6eueooWgyJx391m4ig3/XFza0n4ae9MnBd5zjU7RiLxnxcuzvj3pYvEaK/7v7+LVUFcCUAllzDlBuUIZBlfQW1A3g7+sw6iNYTV9kKDP2S1uLxVLqUY+faeGc14mTnFZMbF28KZA9m76/8PQeSB2kpqJ4s09yxrLHH76h9cwoVZzLXC3MZCxbYBIkDZ4rw5pc7MCruA/Sd9L4t+TMojRVU2gb0pGXtzlChZ/J69Mtwaxnb7v+874hkpgHVL2mjPQ+P11xZpkfCenus1/unbLbP6HlY1CqEvLwYw+M24fnpe/AEP9t//KcYGrUAcR9ux6dbz1jrrxzkE3SpTxeeI27eKOUTdLX3EegLZrE9a8u7YhFQuqiCYsnQhmi2YZugPY/CrNMoyj6D4pyzyMo9a+Vja0GeLQa3jE+CJ36Af2r1Im5inFv7vmm4odPrqN9hLqq3UWOVGp2SUCskHkFdCHfrl226XyCwrpaqAK4UwK6VuXTjMx/IOuo9reCg1RfaT1mJvimbMDBlFR5PWoRnEz+wyO1kFl1oXregLf+n17xY+Nvk4PWkz7uC6wD1yS8jL5IALmYBF8S0Top5N+w5gai5CzFoyjvoH7OA6cUKJ20T+s9kuk3fbStLdIlZZxtQhyZsRI/odejN5+GEsE+8Gyuso56H8TPDZu7HEH5vYNou288nMmUH+ie7DeK0CfcQhhgDo7fZOOP+0+hu87tDktZhSOJy20Vj7uoj2HTWTbYXqDlMuWJifQFfIbfgK4PWA1jW1+AVxnaPtN+FTGnt0sdPFBLanOyz9r7KsKz7puws7OBxwsL1+NfOo9Hg/tG4UeOX28xArfbvolan+agVvAB1QucT2tcQ9FgU498XEdRpHBr3S6oCONCLFdXfA8BqabaNvg1kB3EZwAQ8eRvCkjeb9R0Q/yVGxryP+esOW8HTJHKlZaC/igAsaN0tBwDY4BWk5eW956S9gLUA/PncQqzc/hUmz/0cfcbNRa8pn2DobFZAM7UX8U50id+G7ok7CfF+DKBX0S99F3rH09ry/iRtz6r7Do/nvcdtpNu8weDuFbPRnofFabkgeiaEVs91DOdr/WK2IjJ+ByJ17rhtdLk3InTaWn5mLSKTV/O9hUhlbLyVHAris4XZOJv1FV19bR1y1qD1LK8VTM+zKCGe8izy9S3izUKcSysu0IWzxjhvOVeE9/adxKPPx+H6B/qgwYMjUa/VeFt3+bpeBLYr1flTBHVfiKBuHyBIq0B2zcD1fTLQsFcMLfKrvhUzAsN1NVQFcCUAFqBuz949pRB7ACs+1me0LeTw1/ZYS2xE1McYMeUNi+2On3PzenUfXuzrxb/l7/Ob5AGswusg9gF8Ebyysjx6+/ry/DYtiLnIU9isJ433nbdyJ4ZOmIHQF2bgyTkbMeqtA+gwbTU6Cdy0A+g98zDCMg6gR9wWA6wPrWsk708L7wleqR89johktbTTyhJ6SUDr9QFptMLpe+wYmbrLHg+evs+scNi09QR3PXol8BwZ+9Fv5kH0St2J7oS4V9xyRMR/hgnvrsayA3R77V5VuWUin3B6aaD0sMY8u2cfvDxq/2GlDF+1/me55Lv45J0tJ/Di2yvw01aD0PiBgbju4VG4NXgqftB7BoLaML59NB1BvT4huB/T2r7L4zuo3uMtWmG+rrHO7Sbgpt5a8sb1914rVQFcKYC3G7w9Evf5NiPzAHYrEkp9kjfakiuRCV+i96tz8fqSXc7lUzeGil+A+6qoVHgF7zcDTHgLaHP0vDAPmacYTSrz+JedpSYht3vf7C93YwTjXVUwg9N4rTN3oHfGbnRP34duKU6hydrcnBaZIYKGgA6JWwltJB5BQN1m55cvpZW3ppTyQcvQaMF8WwkyRZaf6ZuyBYNnMG6eOh/Ppy3Emn3ZyOQtZuep5PEGqLyscyyjhJZx7oW88xRRtbhXJYOVZW4x9vPtI3wsd3ncZ/vwu36TUKtJf/yozYu4tfVY3NR2Iq5rF2ULydkkAU2u7zYTQcGzeaS68jHhVaOVZhc1aB+Peu214FxVI1bANyqivyeAbcEzX6EUwA5irZHEGDFuKYamLsPgae9gxf7zNhrJpZ4SV9AFvr+/pkAAu/hX8FKyugT4giD2FXa1MmflliCPb+k6pi/ah6dmr0VY1Gd0eZfwvjYhhC5xl+Rd6Jq2n/AeIEysoOhh6N48eEfELsHQWFpHAl0ezApLFZzWlUpeaStbaNlWLeHajQBrPWataKHFDrSTxrC0jfzNxYh6bQ3W7XV9vfm6l7PnrGHKa6jKzzqLojzXZ3wqO8+s7mHe5wEe3957Ac1G08I2G4jajz6Hf+qViptax1LxaNwm3qA0gLvEE1oqmOqewKPm4LopfAK2XvsUNGybggbttNh6YLCulqoAvhIAU7afkW+opLc2sFupcA16RS/CiPQlGPvGchzldZ5kvKkLLaa1+JsCLNHy5pxXQ44yim5k1gXkMI3O8a1P1h3FsMQldFNXoYcWHNemWul70YX30pkVUo/phwnvHlpfVU7ainMD03A1hscuZSy/2I7eoJXvJPNQViI8ZTld5tUITV2HkNQt6Ja23QfwHlphegJ0s4fP2INh8XSpn38X8e/swj5m7BkFwCqMjIsvFGWjuCgP2bk51u+rBiq1VW9hgV5Mv7ln7EI0eGAEGrR+iW4yC367aAQ9MBnXtZ6Oxq2m47o2aQTSLeVavQvf6zaF4E4mwFTwFMa+WmSOgNP61iO4DdtMR4O2Go/sJilcK1UBXAmAraFKI61kfXlOcwlpkZxb6OANT1yF8LgvMChRLapf2fWclvnjVRflnWHquYT9LioDWHEgX9OziwDmOxrR5MuoTBri0/TfVbjX78vB8EnvMP5citB4WtGMfeg/5yuETz+EbryX4MRdjHkPWl+2Fxp4o8600JvGcQ9RfGoAu+60yz76LHA4IRbAPQhwqNaUkhutPYKo/nOOoPNUDQDZiscz9iBs3CIMnLSIbn8mdjP5lJIFRbnIL9YgDxZc6jDN817CrY2+EpYfwy86P4+gv/TFLd1jbOnWoDYxqBUyG3WDX0e9NnPQsPVsg1Fgah3mmp2jUb3rZFTrNtGkxzU7R6FWp9hSgN3nqwD+hwfYbQVKeBNcfKgCrY3AvZFIfRJXIDKZlipmHpafcI0oAkidHiXWfVM5gHW7gQHmsYTpk68MVMwNnODPMX+x4zgQ8zqt7nNzbX/anomMeekyhxEYPQ6J2YJQuq4Otov7uTXSTBuBuc3A1pinIbfbpcflH0vDDG9FR9tEbjut/k6TBsDI0wmZtg4R/M7wjJ0Im/QlBsevwdyVZ7H7dIGlp7rldp4ttDhXfbqzaXqbDEtEtbsi8IuwBFxPAIPufd7N01XBfyjGAK7TjiBTddpPp9LNRa6lxdQJa61OtLr8noB2z908X5ug7+1V5BujfK1UBfAVAFjxnHa1UzzoRmS5Hdf7Jq2klqN/0hK60F9gJxP1IK2DdX3k88rUT3mFAFZaBAJYExP4s8jkj8o6HeNbKe9vQr8XZuPpjDUYlMpYlOmhReV7xRDaOMacCbS2iZsxgOGAVUg+eYNU/BvpHIzfXa6ScDFxbz+57rnt6DBpBYbMPWTbknSetBSDZ6h1eyO60QoPTV1isMra7uF9acbQF/SbQ2M+wo/bPY0b2jyPH/WIRdDdTyDowfG4sfdc1O6cQRAzUF+NU/dNs7WpJI1pLpvtQ0tsEqgCWtAm+VqcnbwlbQJBdTVVBXAlAVbBs93q4t0KG7JKHsDWdaT1g6M/w+RPd2Mfr+VrXp8aYLJzZYuZ2pUG2LLmGwDm68zIHP6gdnXQ1iyfbTqPUVEfIfyFN/Di7K0YSms3IGkHr30LBsRtwhCCMpxu7PDkjRgilznOzbCykVW0xOo6k2VUbKr+YbUc27Kq30VMQy3TqkXTnZg38XzO/HFQb6XlXYv+03eibzpj49jl6MG0DUujq8207R79KfP0bQcx9cSbKwjuSNRuORh1H3uOFnUigu5/BT8a8DYahRLYe8ejettk/KjvO2gcPMvm8VqLcxeCYHN0BfJs1Go/h5Z5Duq2dZKV1vQ9A8ZbXK4bK4Zu7vvlobqaqgK4EgCrQNsILMpGFln8W7bdhizwwJQV6DHhHbyx/qSNtdX1MEmRk8sATn2VlQRY8Or+9dj1gyrnfFIG8bfOk2V6z9h0DJg4RwvHz8PjjF/7TlyM/jGqdLbS2m7DIN7D4KTNtk5XZMwq9J26zCZoaHy3rK7uWe6t4FXjlo62fYi5wT6L6mddv0lylV0asgJUfpSDV+GI0lTpO/S1A+gydQXC0zdj0Bv70DF6CdpP+xLhrHx6TadbPX0ZwlMX4bYRCfhB+zH4QdexaKz4tdV41OqcgNrdWMgfnoag1vG0urNQo12KTcKv3ioGjUJmOHi12HoXAUyXmKAKWAFcp+0bqNnuLVRv/xZBeY2QsxJQP3A3QqwWakKsXRM0f1dT+7wNx2zPootWlORjXwUh2WdpxTUIxJv765aX5fe0929nikfvs3pfbvsln+38Pdob6W8GsLmUrlHGWqVpnWwjLBZSxcARtBKPJ3yEHeT1uM99NthkO0vyeR+81gD3VhE5gJUG7hw8yJ92YjooTfR7J/m67H3U+6vwRMpiDI9nxRK13rdMqgNF9+DkXGR/mbvM93TP3r7IbrMv77teGrhz6OjFz71LXeIyue86Fzk0mtfA54Nm7MOAjD323RAN04xz/cKdY9agV9o2hM/YhdC0reiWtBHBTNvOzLfW0atwXfvJaNBhCup1jELdjtGo09HFqs7dlXW82EK6ubRSCiEgjO2o7q+jRvBMWwbHdk1oFY2ber7B9zJQu8eHhIkAh8xzx17vsTJI4uuE7L4XWEmocYu/p1FaHfh+h3cI1hzCTSvdnXG3JNi7EP5OPCcrAgOzC+PqzlPwg170BB5RrE0r34Pn7vw2P6PzvIHq3d9GjU6zULt9KiuTBHoUiebe67WgzqxQOvJ3On5Pthf9mwDMgu0VciuMyc4yqfVUjTECeHDsArwyY4HtqJ8pqJRuNqO8hMZSAAe+t4pIAOeXB1jmXZInzTTR5PcT1JoTOXjhtS/oFi+0BiCNPx4Ut9csXaB7q4g8YG38s++x55FcGte6IaelUus900x9vL1p8btPW4Vg7Z+buBH9pu+ysdf9Zu7FgNcPoRvP+8j4pWg1dRVC+J6Wcv3tEMLQ4llrFfYH9HIkC1ajJ4ETxK3iaZEzbJOxum2n4rrgZDQSpNo94TGCTZiCuryO2mHv8zgDtw54n255Oup0mmINXDXpdldvx/faU4IrmC52KF14qXu0D2CB+ZYDuOsU1Ok8HnVaTUT9dvFoHDKX7xHMtrNQLZSVRneep5Us7wx6A8kGcN12idbQZgB38gCeVQVwoMJZEX0rwIwj5UIPjv0U8e+vwQkCJWuotCuyncmuDMDfZoGVUVprSytKpH+xAY8nf4wB0QswKH4t4d2GISn7rwjAgeRZ4DL5w+yA1jE8ZRvPtQk9GX5oD90+6TtsG05tDNY1YTPa0xqHzz2MyLePox2f/2b4O7iR1rb2I6+i+iN0k32tyt9FssC1e7xus4yC2jqAb+6VjkadolG7NeFqM4kgJ6Jupzg0CCbwreSKE8aWY30bkBHCTm70luLmmu3eobv9jtu3tys/152fk4KnWGVh1rfDa3SBGWt3mYK6nceiQeuxuKVzLH7Qmb/TJgY1eP4GXTLQqNsMVKfbX7cj4aXlrd2O4UD7ZGtkq9FphvsNuvvfmw2+/7Yu9MUAe7GhGrEGTZuHOYt32vhnYWuLnwtgus4lxS5Rv6v8AbZc0dYr5QDW2lOHWHM8nfY+Le/7GBC3iDHuOgN4cDJjz0oALH0TxBfDW/bcWecyyV3uTVhldTWQxGY7xW00q9s9jW6z1l1mfN705S/xy8jX0ZiFvXbryWYl63ag66r4MwCcFVVQ2zjUCqbl7U0L2iHOXPDraT1rPvwcat//FH7Q7kVc/+hTuKnN86j70FO4vv1EAk63uX00ru+ZTutLV1jdTgbwW7TEjJsVt9K1rt5tLMWKhjG5/R7d7Ood+Dl7P5oAj0fjNi/jh21fwXUPjMEtrV/CrXxeu/kTaPDwy7iJ527Ia9IytTXaJ9HF5zn4XbWiWyzcnmEAX6sCOEDBrIjKAHajsgRwSLIApnWhVemvDdWmfoB5G45BEwYEcEGhVtxgglrsKwW+t4rIAexUCrDmBFoauIenCPPao9kYMGU2hiZ9giHJyzGYcWRkzBb0j3ONRYHuraLyh9EpENQujXS0hj6frOIjsN35WNMTO8dusC1KNBa658yD6D33CB6augG/GvoOarWaxJjzFdRsE43ruqejQVcWXsJXOYBTaEWnoWbXRDTuQ3e0DePVNoypCd/Nnceh5XOvodnQabg74hW0GDgO9w6JQstn5+IvT9EVfuRlWuOpNjrLGpcEMOG1Fmx1QdG1rtNlLPUqXeXJ5inUaj+Tmu0A5vfqdZqIW9o+j6bDUtF0QDQefjwB7UYn4+5+49F0SCJuf3w2rmd8L4C1omUQLa+5/Z3pululEWcL5lUBHKBgVkSXAuy6V7S1pNzrAQnLMST6Qyw/kIsTtIICOC+/sCwG5jHQfVVUHsDqSioD2HLOMkcu+1H+6BvLdyFyyusYlvoFhqXRfU7cgAGxtIaEWNAFureK6tsBdpCWgmst9E7qV9brYUyrrtpXiPBqsfQ+dJdlde+fsAq/G/Wx21+ocwIadU1F3S50dduwMD9KV5ZuZb2QmQGgrLjU0HVdD1rhR8ejhlqWtasCwareZhz+a0Ai3twPbGP6baUbs+tciU1pXEZFbyjEj8OTUa19DM+TZK64Wdb2rxmg6jtWo1q9TuOdOtJjYKxuA0UIsVtHK8lebzvpU+u73pxHnQH2ZwN7crXIAMvtTuCGDuP4ed6zWp0VR3fhPXdhWqjBrl0UrXIVwAELZkXkAayjALYldKwVmnCwkA5MWIrRyQuw8yxwkhmkS8srEFYu9YqvgAvt3bIDWLlGk6v750+ov/kwC8NLMxZgcNzHjHmX2ppcEXHrMZDX2y/O3UOge6u4VAGUqQzgi8F1g0HckkOS+paVRtoXWRY3NGMPesw4gA6JO3DXC4vxkx4ZNviijrbapNWt1s4B26CnazEOohXTMq22zvJ3lAC+OYy/88BLqNYthbEq42IdW43D74akgPzYaiBqRyAGNtrrK+rtr4FbeigeVmzLCkBdPh3lgs8xQA3gDtEEdEpZC7kApmX2loPV7+v1e5+agy3MQK3OqUE2yjNJ47jf31+Mmzq8YpVKkNag7vomRU+hSzoBZuzdfoq1nFcBHLBgVkxeF4s/wOpeUT/woIQleGnmYhzhNWngvS7NH+DCwko2YjHxdU6XIcoZwusbA62nZBf7mKEDJszFsKRF5hH0T1xvc3kH09oN4DX/rQD2b+Ars7xuQIgHsd7rxjwJnX4AwRn70XLCSvyy/2toyPiyLl1bbVdijVSM/2y/oK5qtCEwrRMIcAbq9HzDWT8/KC9HArieJi60Hofr+s0lHCk8byKfj8d/R8RgdY6bQ5xXkE1vSatnuSmJ7x4CftCNLr0mRNCdtf7hToxvO9JF7kD3lgDX7ZBAiGN9irfnNqqL1+8tCduAkD/60pvYyeJA44ssy8ginMs8awsOfHmcFUX7F3iPrMQEcDAB7kaAuxJguuj12k2qAriyAIclbEY43cDeyTtoTehGJ21Dn9TtNhKrf9QniHp3rVlBYas5wEo7i315LCiqnAXm/3YeW1NarWNatK1IK2yoc8lZjBmfbcazM5YgbMqnCI9dgchUTcLfTPd5I/rEa7xz4PuqqELjNjKOpcXlPVuXkL22wWLbyIwdCI1Zg/AE/hZh7RW7BmHxG+watDaWPjfw7VN4NHozfjXoHXOX67SaStcw1gq8DV/0xbgOFLmREi2wz538awC73Q/KtjbxdknQsRZd5nqdpxLiKNQOIbztpqF6cDJqthuP24YnYxsT8azKleWeFgYowlesIz+neaz38Gh6BoJYLdj8nfbu3HVoHbUTYdADUbiu6yzCm4qGGizy6FTbqbBGW7rdrWNtQEmdR8aj/dh3zU0/wd/Jsd4Jltrss7Zg/hdf5eOfOr3INKC118ixjlTnGagZOsMAlnWvAvhvAvBWa4GOjJqH+A/W4wh9ImWNttrUnwdwYXHlYmD+b+cp0NI8Flczk4oymUFusr5q8cQP1+GptGUIj1psC8lFKD7nNWsdK1u7qpIAC1x/WaMUz91t2hqT9j6OnLHH4O7B35P0ucj0Xbbqxh+enI9fRL6F62gNazxCl/RhjZKSexpDVzbWQScQLwFY0sim7w5w7U6JqN3mVdRs9aJBXKcL4+1gWrv7RuF/w8dhDc0veeCf4p+zlq5fM2FXsFD9tOvz+EFIrDWmNeg+E7UZpwe1mmSDOuqpge0x9dny+h7hfbVKRM3W09C4axxu6h6Pm7ol4Mauybj+sVfw2JgM7ODpVdnmWR7msvhmmxu97HAO/rn9aNTi9dmIrh5zUS1EW5KyInjsJdRqPZbuOCuhKoADF86KKCyB7qIfwD21tAwBVgu0didI/3QLTvKaBFSRGpf4dyUB1okEsA2j5B1fKD7H1NCayXT3aC3Gv7YMI5KXoU/0Gt43Y/OkHegVJ2tIdzaJANPVDXRfFVV5gNWPqxU4FUYEE9aeKdusa6g70yksfTci5xyy1T7uf2Eh/qPPTNRtHWV9n4JWR7cRdqLFvOqbNegEogDWMEaTB7KGFAYG19O3AVy3UwJ+0GUSrmv9LBq0eRHXd3gVN3Uai/r3DcaDj0fbGGtNABG4lrYscceZpovpUv2/RwagVrMBqH3fc/zuRAfZA0+iYdcpaERAG9Llbdj5DdwQrBb0JDRoR0v/2AtmuRs8+CRufPQl3NB8ONqNTsQ20qvfySooQCHd9aJibbjmdr/4bbfRuO7hx1HtoedRR/3THXme9hPxg66TbXpkFcBXDOBd1iDTkxYtgu6h4s1BUz/E3C922soXuixbfNISzAFcUMJjgPuqsHyZUGRhtQO4iJaiiPetKXZ7sy7g6ZTPMCh+OfrF0W1O1MIDuxESswk9YrUSxnreQ+UA1oJ9fdO2lbrPNrlBj2VxU3egYzStMSu1nun7EEq1i96E20bPx481L/deFvqHJ9PaxtFdTqHlykBdSm5ojc6pBM41UnmyBiNPNgHBve4PbHl9G8D1O8bhX3tMwX/1eBX/1v1l/CrkZULwMv670+MIeT4eaw+fA5MQBZogwlRVCqtfff2RbDw29FU0iRiH/wmdiN/2i8OvI6fgP/pPwn8OpaV88DnCPJVKRu1HeB33TcZ/DZiO/+oXhV/3fgm/CX0Od/aJwp0hr+DF9I+xnz8iYAVwfr52pcizRQm2HDmH+/uOMYh/1v5p/DxkEn7WfRJ+3mMqfhHKdLtziHUxVQFcrlBejhT/XQJw6kZrgR5MgN9dvs/cMH+ArfvI91qg+6qwfPdcBnAua28teJ6DTFYS204VYETsPAyIW8X7pmVMOoCecbvQPZqWMW4N+qbo3isHsCx4ZAa9jnSGD4xpO0etsj7dYKZDV1r8bkyXnjMPoVv6ATR5cRl+2I3w3DeW1mgqftiTcay6hXyQGXDtGVP6NgJzcOo9J838cdP4yuR975v0bQA3ZGw5cxewmuZvE8v5NnKqBe82nizGAVpFVYJ8ilyWJ9shorAE2Uxzvb5k635sOl6E9WeApacYF7OgzaNit2fi3/tF4wedk/GTkLdwQ1uB+ybooGEBXfKV/K2VJ4qwjd/bdLgEmw6ctnPqd5SDKheFzFiVDU1C2XM6D3tJ91b+6DZ+bg0/+CUfJ67Pxb/3jrFW+iqAAxTMikoAh2ngBgtqDxZYPdd8Ve1/NHjq+/ho1SHCxMuitOKkUs0D2DIswH1VWMoAZrIBbE9yUFh0kkmQhTMlhVh3JBNDpn2MyLjV6Je4l9b3IGPQPQiJU0XDGDhlLe+hMgBvQkj0SrdwH8OG0AS3VrRc5N7T9xm8WhanxfhV+M/B7+Omrmmo9RjjW8a5GtfbOEQTAAhZpwxrBApqS3C1IqR2+yNgNbpkEDoBKFAprcFM2eAJk5Z0LYM/kL4N4Os7TMWHB93ev+q2UVkRnJp6qR0zTp/PZtnia4UXbPVOLXqv58o3LcavoibXV11N2tFB627NP1OMf+r4BOre9xIaP5qE2vdOwb+HpmEhT673vc3cBKxlGY8CSuGVzmvn5gt6Te/lFGjfYv4On2hGmRbT1bTU17dko9E9g1G3fUwVwIELZ8V0KcCbCfB660IaOvVdzF99EFm8Nu3N4zYx41Wr/1eXSQW6rwqL57W16zyAS7JRUHiC583GKVK98sAZ28ZFC9H1TdiLnvEHERq7l9epGHX9FQG4+7QV6KWdGlghCGANiRzw+lc2DPKB8Svx5zEL8KMQAnr/RIIbheu7zcQNoXMY66ZYS62N6dUII43rVd+uxboZBq8/wDb1zgeuWx3DN+vor4zE+jaAG7efgqXHHRiygrZXmhYCVI2oLjmmqcDKLnDL0qpo2V8h3dyTh3Eh6zRys/NwOi+fEOdaRbD4bDZ+3nEIftRqLH7UJgk/bp2E3/RIxHKCtZu/cTT/DI6cIsraGT0rl7/H0puXxZ+ii873c7QTJK9D64K7rWD4GSrv3AnbIoYGGcf41qIDBfjZY6NQv/20KoADF86KSWsZhyeXAaxW6QEEeEi8A/iTNYdwnteUyypctbZSTQBbWbFnge+tQuI9a5VJ633Qk+LzLH+q47NwuiAPy/aexPD4zxBpkO5H9/hDCI4nyIk7rAHL1uziexePoirryw10vxdrk+04EUaPI4RWvlsMQU7ZZrFvs+c+x0+6J+F6WYjWdPXaql+UVlXgtkpAtbZpqNv9DVpewUt1VKPUDNQIno3q3fScoLVTI1aKD14tc+Pg1XhlNejoWBmAb2g/CYsOw7pstJGaAyYbxWf4YjGP2UIbyMwrsZlkmZbOlOAuIilFfL8410qh2o21XP/ik2fx752G4F86TsTNj1APjscvO47DGppqWc9cVgV5+URdc8FzWTqpEm1tKpDst1ysbX+2QL1+4xQKz8h+51psfIhMz9t5Crc+OKgK4Mo3Ym1DXwIclsRYj+cvD/C8tXSheQ1ywYrUaMWrViNFPq9fl1oZgJURKlPWO2UAM/fy5dBlIZvWfvXBswif9J6tZtE9dT/axe1Dj/Sv0H/GQdjIKAJnUwFtAr2kyQbe0UGtFus+Sa6RSjOHtHplT35XMe+g2XsxYNZOBMesRAitfP85mnC/Bv/Wk+7uvc8g6N7nUOvRyajTmrC1T0RdQlNbgxjaE6I2KQSZ8W7XuQRXo4toidVNJHdasEldXEOWwdsxwWb9CFptMObN/a3MWOjr203GPLrQx5l0coXV+osi5lYuK0GtV1aigTZyodU86CS4Lmg/nFx+g/CWELBMVpxqeVDVueTMBfzw4Ujc3OoZ/KTzZNzSZix+GzbNhkuqVVsbuxRfYD6pos2l+c/PRVFuIXJyXNyr/DzHCkNjBPSLF/LonBcdo5X+iu+fx0l6B5pd9uHhTFz3QH+60FUABwSzogqP32IA90kMDPCHq/bjPK/NH+DcoisDsL6vQqU1zi03ihnB5RFgWpH8giKsP3QeA2M/QcTMrTbSqV3SPgQnH0CftL0YyFh1YByhYzzcN377RSpbEYPplbLDWtrVf6v7FcjqLtIsok6Tl9lqGREzdtoWLM2fm4+bHnsVQX8ajKAmT6FRmyl0k8eh2kOTbAWMmtrFnhbYAG5H69iOR40w8vp1Ba8spAZC2NFtJqYRU2UAa4qdg1iPKwOwFgN4c3exAaFyovjXCpC6jYpykH3+FHOHacykVTprQfks8pDDJzlZekXfySNWbrs1DbNcTO5/3vU5N4up9Uto9Ojz+E3fWHzGD2jNLn1OuxDn5Z1EfrZ+2Q3u0W8oH9UabfDxyFpEz6gsPsq261OsreWDMradRN37B6JOh6oY+BIoL0eXAnxxI9a7S/fiLK9JWeEBnMeglcl65QFWvOQDWLOethzNwci0RYicSQBnHEDnlP224bjm4gpgLZ2jtbC0Kodndf0lgAfP3I+IjN0IS95mo666x25gqLAZ4XSTI6bvMd33zHz8uN0EVLtrJGo3G4OGD72KGs2fQ9AfhtEKv4Sg5oT6/gkIemgqqj8WR5CTUZMQa0ihG5yhI4EmVEEEUi6uUyJBcwCXudAOYklQVwbgBh2iMGsPsImZIwdVrb0nmKinaHJPZ+YYRFn5RebWWjr76eDpApxikh+hBOYOHpcSnhk83y96TkHjDhNQ48EX0bD1BPxXZDpYv1kL8i7+1jHm11lSJJD3Hz9h52bOIZN5pnN7ZSOT1jmP+Xo0JxcHc4rtd9bzw1/yw9PWZeHnYbFV3UiVAdhiRQKgvX8CA/wh5n6+jfGoD+BiXjeP+SUFSk577UoAnKt7V24YwGfsqN/afboIYzIW04quRS9CGJrh1nzW/kaDEjfxGtfTldZ4ZU0+kCtdBq6ksc3axEwNdeo7DuW9aulZWXCtqhEcsxl/HDAXNz78MoL+PAzV73oCte99FkF3PImgu8ag/oOEtilBbvYCgu7hZ1qMI8iTUf3RaNRuk2gT1AWS9fNaF5GTLG9QR3UlOYBLZS3Q/tLr3x1gTThoNfFTtHv5NXR59XX0nfoORsS9iz7Px+D52Ax8db4A2tk/t8ilteDSrLI1h85hyIQ09H4xAb0mpKN31GvoOukNPPrqW3hk4gJc124cbgxOwPXdGDa0nYobOkzFw+O/QOfJC9DpxTno9ep0hL0Yi8hXohD7xts4UpCHzAuFOM+4Wqtb5zP2VfnYfeQYXoxNR7+X4/mdGegx9SO0HfsRWk9chHufn4e6j2mmUtVQykvArKgCAazCroEcA30DOdLnb8QJ5jyT0foSlXYaGKDLVH9fZQBWRui8eeZvKTdYuvLP8v5z7D0t4/P8rCUIi11sK4T0mXUYIbx3LSE7MGkz+sdqwTq/pWJ1P6VyAIfGbkbnqWvRJYqfI7hD5h5H9/gd+MPAt3DDg2MR9MfhdJmHo849z+KGRyag9j0E9v9oee9+Gj/slEiAn6depAhxM0J876uo1nICaj04BTUfjWIBjCfA8ajRhe41VbNLCmp0dq5ztY6Jpf29gfXd4ZVkxRu0ehE17x2COi1HotEDI/HjVk+g8V3dcXePx7HpmBsQk8d4tPiCWzj+KybxJztP41ftBqH+3aGo36IfGj00HLXuYzrcy3N0ZNhw/8s8dwIadk2ntxHPMGK8rSBS9/6nUfOuAWjcfCAa3tUTNzfphO7PjsXOrHMsp4S4RBFyJnLoRWUz/l574Ah+/XAPXk8Irr//STR4mJ7MvS8y7Saj/mPRCLpPkxmqJvRfAmZFdRHASTsI8HZrlY5I2WojsTSUMvH9tThKgGUp/QEWc1cCYN2u+idtKKUHMGtw/c5x5t2099ejT/QCG7gROecANNRTDVODU3jN0VqAXitKulUlXYu0d39u8TobGsr4OXLGVwR3J+556jP8nJDVa0Yo//g4gm5/CtXvfoZW9ykE/eUJ1G3+En7QOhr17x9PF/px1ODnqskCC+QmOr6I6rTG1elWa0BHjTZTUa0dQe4Yg1pd4lCbEGuSgaytP8BulUdPdLUrOBLr2yQXvF67Kbi5awx+1DsdtVqNQ+NOE/Gjji/gvhGxOMAydY4JqdlI+QXnDWDNGlpDqn8V+gIat3kGN3aZiJtDWRFoBY7Wk9CgKyufdoRWM6baaraTW/Im6OFJNsvqev7ev/RMtgaun3d9AY+NmWjueyZLQk6Jzn4W2ZlfE+cirPvqLH7daQQrxqdwa4/puKHnm6jdaTbqd3mN7v903BzyehXAlQaY8aA/wGVjod1khui3V+ErZrgDmInFo+yvANZQyisBcB59cZvMoO6Ngkzev5uNpML3xooDGBz/GcJilmDwLLrD2puXGpqxC31i19Ly8v6T3c4Ibq3mTTYcUvD24n2Fp+5BWNp+dJiyEb+LfBv1m9OK/i+tzW1jcN2DEwntaNRtOdYBe8fT9rzmPS8R5FcI9xjUpOWVajR5/iLpter3sBJ4kOd7dCyqtZmEWoxJ1bKsrqIaHePoRseVA9gHbumY6L8+FvrbJBc86NEpNpqpYcgsXstk/q42OZuA/+0zCesJg2vYcmPM8y7kYT8zcsEJoP4jTIMHWXFppZD2BLa9G7tdL2Q2GvZ8zeL7hiFzDOAber1GgKehPkGrRstZV4C3GIuaLUfj0edSLbYVurnF6q84i/ycI5avq77Kwi/aPYEa97+AOt013VErXr6FGl3fopWfhloMQ6oA/lsATOvmTSec9OZKHGIpUPwkV1dgyR27UgDrPBdNJyzMZsY4gNV+uWjnWYxO/Rz9oj/HsBmEMma17Zw/YsZ+hMc56+sB3CvFbW/iAWxbnPC+7n5yPm5pFYVqd4xB9TufNThrNyOgdz6HWnSJg/4yhm70aFRv+hJqN6dbfRet7Z3P0J1+qQzYu5811WrC7/hUvRkBaMGY+X5+/lEtlzMRtdpNNpCrt58Gzbc1SyyAvfHPpfCq8euvz0b6NqkB7IYeM/jbUQQwFUFtktEg/B3UaBuFfwkZj21MX4HlWiuyWbSKcJCvaSjj9R2fR/0QeghdMwjWbFY2vCYtjteRrrkWHHgsDvW7zkS1VnG4udfrCHpEM51moxp/o05nVhaPJeF6xvHNR0/HHp79CCuGXC3GcCEbJQVyqIEv9mbil12Zzg8xTbtpFco3ERT8DhqEfcjzRVlFULUiRyUBdus76fF2a91V447cT29C/1NJ87HnPHCeCZVV5IbLFRYX8FiC7ALGqpUAmP/7ZYgesABoaJYvxlbLJssAnkn5BGNmrMTAxBUYlrENoVNXofuEFVb5aERWWNomhKVuse09wzJ2oM+MXTaT6JFxS1Cr6VOo2YyxW9PnfKLlJKjVm75Sqmp+cu9J+pyzvpIHbe0mBNunmk2fMesSdD/j5paCmbqfLvejjKXpbtbTEjftY52FU6u0WqgNZMLblRBoz14WYA3K0ECNml0y3EAN31hqPQ8EricBXL8zv9s+CbVCNaiEMD7K32r5Cv74+GvYxfRTr3pmvrYrzcPRzDPWjfMF6arX5jlaQk20J7ia0N/ZtxA7z+v2TtJOhwm2EodbjUOT+XmNWo1Da0h3pHVun4I7hs7FBmaUKops1RPMxrycXBv889nuHNz66BhLC1vsvRsrAlueNoWvTUHtdhOr5gNfSYAFr1blkPXyltQZHvMhNh4tttE+atH0B1it0YHu6/LkMsHlDM9OiDXbScmgWlyLuqfP34zIiW+j+0tvo9fkLzBy1h4MTNuFyPTdNhijW/xaPDZ+ETpErUT4dO1MuAm/jSQgdz7ug1ewyWJSpQC/dBG4fw1gfd8g5rkkD+CaBLjafQS3uUQXvAWt8QMv0cJMpLs5FdXbsPBqIjwLqg3u6EzI6Ja6PmPCQ4snaP3B9EZaeaOvvkkC2BqZWsehejfeb6dZqB7yGuPwFPzpibfxMWlV367KkNKS9bC5ux+eBuPPqfxtVi7qBrMVOWbaKhs6p+DVipnSJatxdODnbBH411C3fTraTVqH9Tz5IebTUVr2Ah7PEWj9pjbD+0Gr562vV8NLbaPxbvI+4lCn0zi+Pp4uf9V0woBwVkQCWN0w/gBrZUq5nmoQUkPWgCnvmht7kumoQqDLE7gC2BzoAPd1uSrNFUlTFfmaB7Di4KW7zmLw+LkYMm0+IqYtxsiZrGSiN9ispHYTliFizj6M/OCEgfub/tPRkBZRfbrVmzxpAMvVFbzVTASuVISYCvKT95r3GQ9kfb/MijuYDeAWPGcLgiuA7+XxHrrU99IiN+f5WtA9f3gK3dAYutZJtjFZHVrfGjb5gZaWLqsHo1leQqLHHrje82+SwUYrWaN9gsGnCqF+j9dQv0syfhQcjR7xTCt6UE/GvoHRMbPpTb2DQckL0DHqMzToMI4uN119fqdsCxS3EZr/YBMTIRbUtj2KLHBHQTyHLvB0/Atd8IGs9AdMXYJhEz7Ci3HzMCbqHTyX+gX68HdubvOKdXdZG4Dg7ZaI6l3oPncey3OPqwL4SgLcI2k3AdaG2HKj3bKykVPex7urD+GYGoh9l+daoeU8Vx5gf3i91/TUKgrqHN2ynccL8ELSR3g+/UuMTl+L3pOXInjyanP5e6bsQDe60g++8gX+MzwNDe4jQH8ZhqDbR6DGPQL3GVTj0cHrL7q+9/jpGwAuk/ueWXHJB7X9xr1OQepDVjeUINb5m8kaT0C1hyajxmOEuE1iqSXzZOsjE0YDuH2yHWt1dUuvypUuD62/DODOKajbhdaaFl7fr9dtOmNxWjxWLD/pNB7/9OgT+PF9/XHDnSH40f0D0fj+YWj06LNo3CUaDQm627PIZ807uRFjbrCJb8y2BpxoAIqWlbXPyo3WypTa1pTW++6X8XPGwjezAvvhPY/jlw89iX9uMRQ/f+Qp3Hz/k7ix3XjUVws9w4kaXVNQgwDX6hLDa9ai8qzcOla50JeAWVGVAazuFwew1oWWFdb7trB7zCfIWLgFh30NWe4Snf2tLMAuN5hTJveaB6/CKQGsQfjH6JKlvbcKQya8jidTGPtOXYqRc79Cv/SDaDVhJX4dMQu17hmDoN8PRNAdI1GbbmwtjaS6e3QZwFTQRRJo/ioH9F+TD/KgJmPoej9NkJ9FjXtfMGkfX1chMB5uOd76jYPuox6YgpqPuEEgDQhNQ1pkLW6uWNcDVlZXAOu1vwawpPnIdRnHCkCBfH1IBup3SkT9ttFo0GoSbmo3BY3bjEXjVuPw464xuK7tZMbIL+PGbqxANEnDZ1lt/S6/QSbVO8f7pCmPZQNOHMBamXKmLbnzA3oUP+qaZoNerntkPH7YPgo3PjYON7aehIaP8bV2UbbwQF1ekyobufe1OrPiUFebWtGZDlUAlwOzopKbHAhg/50ZhiUsRNTby21UlAAWWMK3SLEqLzbQfVVU5QH24PUAlrL4j3537b5MjJr8NkYlfAltrRKRvAO/6zsX1z3wKuq1eNHc2WoENuj2UdTjZhkbPTouMLxydc1ieq9VEGSDk2B60muMhWs0kZtOl5rv12rOa2n+MkFmTE1Vb05XVS3b9zgJ5toPTUX91gmEOMWt5kFgreVXiwFovDVh1mt/zYWWtPdR7W4zCFQyGgWnoRGtXO122p2B52BFUZcxrsZu1w2ei4bdX0eDbnNZkUSjESsPeQXWQCWrSxm4GoBi3V5UVx15jaV91nTtvb2IDeB03BCiI0FnmKDJHup2qsMQoR6vrT7hVEtzPbr4Jlrb2h1ZaWnmlvZFohWv2lrlbwWwWqKTVttmYs+kfIR1B89aq7AGrQtgNWT9rQAWuN7Rm0mjHsbZC3ai76vv4NFRr+M/taTNbU9Y144GYOhxrebPo+FD420yukHblNbxHsFaTs2fKnvsD7ak+FUKBK7iWkJZJj5vqj5hxcNlDV4a/FGjmYO4pgZ86LP3MB6mqt07FjVajEet+yej5sNTEfRotMHboIc2B0tBUKu4UiscCFh/CSg1QtX27RUsgLUiZtCDE60LKOgRVghd3uNvvEYY5/H4Bmp257HtbDTu9jpu6fm6a6DyAWwWUcBqu1JJMasqEk/8Lc1/VgxsbjStcZ2u/I3H1Jcs4NWazd/q9qY7dp6DGu1YebRLpkdAV7mdro/gtuf77T/ifb5rEFcBHADOisk3BJFHdR1ZvynjX7VE6/2IxDW2F9GQqPeweIdbKlQWkQc3dc0Sldca4N4qIht9ZfDypMwVveaLrEszSiuBnMwsNoCX7s7Cg30n4Cf3DkLQr4Jx8wMvodbdY1CDqkPrWa854eFjGx5520haxGcN4MAQ6yhoy+Lib7TC5QHWIA/pHlpYjcpSi3aT51H9bsbGdzMe5jXIrZZUqTg5y1yTVrh6M8LchN9vyu8+8CLd2Rj8sCcLeXsC/fA41GxLt5PxqVxOi019cbIamjwJHoOYn7FdGR6ZhMbBKbYXUbUHp+KmHm8T6jmoFvwprTQhDlvOyuEd1O63mKC9xddYSXRivG2xbYLFv3KTrZvLAC4Hr7q+BLA1eHkiwLT02t4lqPsMBIUQWu06qPN3eYOaa/Oma7dlrN6GLj4f12xHyNvyfe2C2P6dKoArA7AGPYSmShvQwzcIwoNaVlk79g/l+UNfep9x8GHrU9TqHLbyw4V8lGiT7wsuYb+LLgbYEzPMxMeqHPhTR07nWOWh3+/7Cl22X7fCzx4YhoZ39MdPW9E1/U0E499BaNziOdS96wk0YDx8g/pn/zDQ+oGrN/NBXGph+R5hF5RqsHL9we6xFBhgSt8RxCYCqEEgTemmN6Vl1TnUuHUPf++eUQR1BCuQYXTlhyLoT/1QT/3Ed/D1Ji+h0YMs8L9/FnXveRE3NI/El9nAgvPAHwZG40cdn8dPuk9GjYeet2Vcgx6bYjFuXVpUbdWpoYjV2jI+fiiR78WgeoeJfH2sdcnUb8e4sw3d41ZJ1AzUbzUXddq+g+rtaOk6Ul0IjgZU0O0NCiWkWkuaFleVhBfj2sQMykBWXO6TrL1zof2kSoXfswkc1r+tz/LcJg92VTZ+jXa+VuxqHdV1VeVCVwpgTRAITtuEbuna10cjmdahT5J2HdA0PQG8CUMYC/eduBjjXtuGAzS62uSsUNdaOm75uwMsOYj9weWPlKoQRUVuORiNytKE84+2nELTXoTh5/fgF4+NRNDvwnHzfc/h1gdfRJ27RqLGX4ajXtPRuK4FAXjwZQL8dGlXUpmV9YFp8L5kUEle/6/X6lxqkf3dan9rTAscJGvajPGuwU9LLot/75Oofu/jBnGDB55C40fo5v+hP25pQ/de5/mfQfiJ+m9/G46oj9fb3sfqr7V5shtP4/f9JjKOD8cvesfjX/vPQu1WU30xJgF5mO5u2+loHPqOxbc1O00m1OPoBk+iOzwVDdrGoVFrxsOtMlD/MbrmtMJyW9V3a3OWg2lJQ3ieHimEmKK1dSBeG1Xt0F9pgB3EssAajujtA+QBPDhpM+PgtRg67XOsZik7zet0kw8IcDGxqoQFlr4VYGZcbm6uJUkO9RVf0k790R+uQaPfPoRbm4aj9l8G4MYHXmaBJ8x/Go6bHp2IOmoF/v1wi4dLu30oN6CDItAC28kNzPCX9znXf+zfiu0DutQy67Gsus+6e+/5LLm1Uv+FlcmDdJvvHEWIB+DWRxgn/0UeQ090eG5G6WJ0R3jrR5gcGimloYljP9zOSknWuzd+FjwNN2p3g/vH4vqu2sSbMe9D8WbNbO0tQqhlbK1bifGzpjnKbTXX1Wf5DBbPPe5GMV62I18rD9XVVBXAlXKhtyAkdatBrGGIcp8dwIJ3i2lQwhYMS96IiAmf4M3lx2w0z5kcXSSh0xI4VwLgiyD2A1jPmUpaXVE79WswiazwPr41MvpNNP5TRzRqOhQN6DoH3aaZRaPQ+LHJaPAQLdhtcln5us86yrK6oZBPo97dT6LB3aNMdZs8idp0s/0lt9uz3M56+yw4IVVF4MXM5pY3J5jN+dv3qmFMvyeLPImuNePZJtQf6RncMx6NW9Ja/7onbmgWiZua9sAvW0dg+dFcHDpzBgVFWpfKNdbtO5mFg6wXD7E8LDxQhK4vz8UPWgzEjQ+Nxq8HzMJ1bXXe52lVk3Fd6Juo3u0tVOvGGFcNR1reh1bZVgPpkMBjnF93kOsScpMr6PYSnsqMw75SqgK4MgAnbUVIynaTHntDKwVwBOGVIhM2W7fN4JjFmPj6arueo5la5b+I7q0A5rUGuLfL0bcCfKHIrLBWleArtl+wrmEXa5KOT8Sg3l/C6TI/gZsfG486LV+kxXoc1e+bQNeRMeKdtMzNJhhUinMFcL27n0ajuwj6nSNw/V10ce9+HHWbUk1GEV5JQDuoLwLZZ5HV4lxq1RnvVms+BEEtKIFsllnwxhKyZATdncxrSkej++JQ67bRuKUFvYR/b4lfPRKMj3fuxsHc89CmY8WZx5B35mvmPdNTBZX/ei3vWrRm7uoj+H2IvIoQ/CJ0Gn7ZfzbqtJmC6rSw1bt8THAXUB9R71B0lbsS4C6Mn7tGEWynal2jUbNzrDVYqe9XLcIaClnaQHaNVAVwJQFWq7PbkVA7/W0lwG5whwewdkToF70Ko1LXYGTcfGw+fgFHc3XlvNTiXN5H5QGWvgniCwVynktwPlOzaVzBPpJVjDP8yvJDeXhweCKq/aE348kwNH6YcWnTMTa7qNr9Ws8qmkBNNouohqZajHPr3fUMrr/zSdx4x+OEeBjqNRmB2s0edyLAtZpJT5bCW+ZSe2542Rhpa7AiwNVaDHIAKz5uxt9ryvi2CSG6m7qT0Nw1AXX+MgI1f9MJ/3ZfV0x75wPmawlOFRxDztnDzG/WRlTByQOMT+hUa2XJvPPILyzAyewiV2lSr36wBTe2HMj764ObOk1A9cemEkBC23E+gjrRCnd+wwew3GMCHMz7704FE2IfwOoyqtc+CQ3bpqEBIfbc62ulKoCvAMDq/+2duJ3n3WrQynWO4G/pse0CGLMKI9LX2W79aZ9usC0rz+a58dCB7utypMzQ8WKAyyAu0dKldNMLtL5SvpuldJIewLHz+ebOf7jlHFoOjEJ1wtHg7oG44SFCdPuTCPozQb6fceM9dDkNqkmo3uRV1L3rBTS882k0vuNJguysb817pFG0tBo77c1ecu6yDZm0xi0X1/ofzSLfMwLV7x1Bd5ou9D1q2KIFbhbjg5iW+H/VgPU4bm42Av+vaU9MfWO+WdYDJ3fzX91BLvOclVQOU7WA95p3GoUn9jqYCbIKxJncAuw9W4D9TKbFp4CQqe/jpoeHonHrl+hpKN6dhRpa3pYwuNZgVhzd6AF0oxvdnQqmujr3Wd1GGrzRoF2KzSaqAjjAixXV3wPAglcK5zkdwFtLAdZicb1jNkC7Ag5IXo1+Uz+y2FNTxw6ecRZRfbaB7q2i8jJEjy+CWAuUC+IL+SjKZZGnK52ddd7caeWfFhDXMMvj/MqSfTnoPJrx3q8eQ7Xf98TND71o/a5Bd1EGlLPCQU0noNbdr9AKC+Jn0OAuwfokqt07ylqOXZ+xa622Rii63S6mLS9v5hLjallqnkMwu+GTfP+ecTxOsM80uv9lXNdsGG69qzdenvmZpV0O76VEGJcod0tQqFXztRC65tPmaUkhWeSzuHDuaxpktU8XmudxjPeq2URaASNlzRHcOTiGocMLuKHVRDRqM4lucRRqafoiraxBbJbY14+rft0uinndsEkN4BDIrgspMFxXQ1UAVwJgW3YmcbdJ5xSw5QHum7wd7V9dhKHTt2Dk9FXoO2421nxdYK2n2jgrr6gY+fn5Jq28b/fFwqhtWHQsf8/lFRBgZVqpJfaX3uNnKO+7Gqml5VKX7ziGsGficcttwWj45964+cHnrTW69v0E957xdGfHEuDxhGocqt35Emre8RLqCDi1ILektb7vOR4JvDYs03I7TRg/02IbiM0no3qLKXYMakY49R4hrnHPWNTh4/p0zWvd5RuRpYasOxnr3jnE1qgK+llzNIkcj9mrDuBrXqdGs8mTKMlXC36JxfWyswLUFUylAS2y1ncuZu5rYXR+QgVYn1V5UEOeFlk/SD37+pf4fc9n0bBJb/y004v4fyGxqPYQ4/6HY1C3xzuo3v1tBHWYi6D2s2iNX0fNULrYnbX1C93p7mX9v9dKVQBXEmDN6AlP2G3rKXvwSoqFZZH7pu20/XL7Jq9Hv/ilGDTtIyR/uhmHWeLUKqyhlboX/z/BK5gvF2CpzAp7IOuxjp689/Q5pl9uFnKynDfwFcv8U/QQfnhbNwT9Rxs0vHsYXWnNTKJ1pTWse99kU+17J6Bey8m47tEom5CvrS9rPEiX+H63zlVQC4LefKJBG3SvLDiBuIsw30Gw73ieALMCaDkODR6YRLedQP92NBrd/RJueWgsQR6Kmnf2wfUt+9Bdb4+IhNeQsmQ9tmUVmevMK6fFZaLl8vp50SyvVhn6nGkbeebujRCXyPPQO/pULstLASFWydDCNa5LTTAv+/oEerwcy7Cggy0496+hCfghrW6dtjNQs/1rBFgjnwixZg9pOmOPGaihPuAuWvKnCuCAb1REfw8AO9eZ5yuF1/X/uimGfD91F/qm7yLEaxAStRiPp67A4KnvYt0xFiCVQ12v35/uq6LWVyoPsGQF2CRYVZh90F4iAZ2L4qwzyM/LsaQ7TjP15pe70H74NNT9TXvcfM9gNGw6EnXufgI1m9DS3kndxnj17hdQl8AGNR1NC/0EIeXrmgaoOPbecYxrCTAV1Gy8Heu0nIT6D0zhd2jB6WIH/YkVw28GGLz/9mgifvrgRDS4bRCuuzMcDW/vgF+27YWwKbFYm53F2LXA8lHNcdpSyChWueRRr6ul2esPFsR6WwUWFzz77EkroGjJVllj7eEooHNZUpxH9Naqbbg3/EX8qPkw/LTVZKukbun8Ohp0fI2xrrqY5hCYFIJMN5vw1uyVXgVwoBcrqmsNsADVLgZylT14B8RrEMcGvqYJDloYjhY6Yx+CY9ajV+wajMxYjz7j3sVry486N5rlzANWVtftYFj2F+i+/RUI4DIJXr0pmAOIAJdk8yq0njRpyMnJwfn8C1bU1x/Mwei4d/CzZj1w022haPCnXqh3e39rdVaXUZ1mo1GvxdOo2fxJ1GhBNX8atVrS7W75sq2LVYOxbPW7GAffSav7F7rZvx8BW+j99uH87hNo0PJJ3Mjv/+jeV1DnfwbzN4bi5tvCUetX96N5v9H4YOseHOF1HCFipwlZJpVdyDBDdPLS5TPn8UJlXzVEVBbVOcvOndb+jwaxPRPWkqoALaeuRdvVd5yNr4/v4Kcy+aki+67c9OfSFtu83J8+/CJueXgiareYYLOfftzvXVzXmxb50akIasXKKHx2FcCBXqyorj3APjeZ1tbBu87UP0G7ATqAtWt/aOIuWxwuInUn+sWtwpC4pXgqYTG204dj8tqf4M3Lo13g0furqBWWvIy5SCrEPAb6vORAZqWRz4Ktx/w7l52Ds3mFVty1mscn6w9gyPjp+PcWPVH/f1vjB03D8P8eGkH3uh+C/rsLYR6MOk2Hom7TEajf7Ek0ohWur+Vy/kK3m9A2vucFNG72LG64ZwxuvHcUNRzXNxtI1zmcFrcX6v+O8faf+6HR/3RC0+7PYt6m41axneRvC6hMusKFTCXltLZl9Qqe2ucyeYGejfUQ1XMhK3QdxPpXz1iA7V0fxBcYF1P69vFTB3E+95zlxRn+hBrKFu/JQY8XZ+KWphH4Zeex+H+dGb83fxY1CO5PB3+IGwlz0L30LgJAdTVVBXBlAfZN6he0A+LXmDyA5WIL3u5Ur7T9iEjfjx5TVmJEykZ0f+ZNvP75AeTpun1/2n5U0Hp/2s0w0H0H0kXg+qSk8D8GkrA9dvocjpw4bZuk8f9SZee7LUUUM25kgDz5tU/RJGQkGv3uYTT4fWv89IFINLorHPXuiED9OyJxfdNhuLXFGPyEcfGPWzyPW5o9jQZ/GIxGfx6I6//cH9f9JYzPu6He79uj3h9ao9Ef2+K3bUcg5NkMLNpXaDHp1/xBbyH8zFy69TZri3egFTdpfks0E8R3gbLGdv8sASoLksO1TLp3tVnrHcXAHsQO4FycPKFNQd0pDx35GjmsQHXPCm/0zptr9uH+oeNtIfZb2z6PH6p/WAvVN5uEW/vNgzer6VqpCuBKAuxGXtFtTiC8CatNeqwZSR7AvdIPoUfqAWutlrutTcX6jv0Mz8R8ir1fnzPL6/35u9CXA7DkZY6XDGaF+Nw7eq/7v3/4XIGNztIVCJqcXBVf925ethxTOpjZ53EyK8cakbST3ydbDmJE9Gw0CxuDnz8wwKxUwz+Eos5vQlD/Nz3R8H/D0PA3BPu/e+HHtw/GrX+OwI3/F4Ibf98Z/9IsFPf0fgYDp87CxHeXYAt/Tq7yfv7kPvrAso/69ZxMegY5TAsNO82TClFEF7+oQFi6isfuQF1JxXSitSj6BTVayUXW5tsqG3rk7svdkSB3rwperaXNZCPE9DhovnVeQS73uoCW+Szv+OvibGzJysWEj1bhN6EvWfjww45p+HHw+wi6T/3A0wOCdbX0vQfY1kPWOsjl5CAVhOWPZdI8YI19lsX1ANYxgs89gLUNScTsIwhJ2o2uMVsx4rUj6DllDcbM3oveL76F+Sv24sDRs6WFLJfXXlBSzDvicx6V2Lq3UnkJbgVRmcJ79U8Tvu8lw7dJnxPAAkaOpNklnj87x2fxmHpan9hNushBQWGO7aioz5/h5+TiqgV3xVfFeG/9aUS/twlPxy/AwFffQu+nZ6DbsGR0HBiH3k9m4Ikp7yP2rbV4e8l+fL71BNZ9nYNDPK1c1UP8KcWwil91bu3B69sH3V2Ud8GFDAjyeb+Cjm8K0Lx8Xp/ALabtNoh1vfIXtCWYyoWzwF7aum+qbNBiazonvR3tFKqVIHXb+dpCkp8qKjqL3IIj/NRpnimLZajEdsV/j251tylfoPGDUxDUJA63dPsYtdrPNJAqNqTSi5d1dI/delpufnLZY3e8+LuB9b0HWIuZayJCedkC595C5/5HnwR+eNI6no9Wl8fBqRsx0LqKWCnErkHvuPW21WhvxsB90/dZQ5YGfMgia4Pt4Gkb0PmVBfi3pn3w3rL92E/joUJ8hjeigiw7mFXMwqQEV0IzQ0yW6Lo/WZqs0oy5KF18mfSN4rf4MXtsbFA66rk7h/djfMf3WK/pe97nJV2jGPOPP79N+vw36eJr0AOf+PNlF+53j3YPujYWUBuw4hVWr1Jz11te3v1JAlrXpQqM32SB56l0y9ruUbv0853CC4I4F1/xCrW/720RUbbowU3tXkfdVm+idrsZ0O4IWjlDS+9ooXUBWKtTuimoQ5KfEggcjxooIvE1rRWttbFkyfXY/1gGNmH2yZtvXDrv+PsN8GqDUZPyL4XYN0n/Eq0zaTcDAazdDiLiVyF00hcImfSlG3WVvg0DM3aifxo1fQ9C4jaj/ZS16Ka9d2d+hc6x2/BvPZi5vw7Dzbf1xSP9J2Mnqd2eWWLW6AQLpArW+UK6gkpwJTTvy8qrHisz6N45XQpwlSomAaxdAc8ygdUbwIjFkWy1ChO6UNVSNs6XaANvYHjiLPxr+1GoefeTqPNAIuq3eh21WhPWdm7aoTYvt6GV7VOgfZG0P5JGamnlSNvniQrShm/SRQC7Be4EbRnMvrWzqgD+6wCXWtwAsv2CvkECeGD6JvRPWos+sat53rW2M2FE2haEJW60ARxdp63FgLmHMfTtk2gXtQH/3ouZotFGGhxxxwhr3Lnx/7pi3GvLbFL6wQLXnXGuyPXLWmLLCtl96QUP4Cw+DGyBq1QxySJrXpg6lPJYU1oXla9gK701fjyfgMspX3P8LH50d1trtKt59yjUbj4VQS3jEfRgDKo9Glu65K0WptMCedXaEtBWsajdmWBTmm8st9lW39D2qZ0prWRp0JcB6w+uB21AEd4qF5oAC0QDlfFs+aOpHLT+sgaw+NU8F93n6VsRmbaV4K5HaNw69EzYhDDtADh9LzrHbMJdo+fjR51iEHS3dvEbwRjqGTS87wXc1OwJ1PltV/z7g5FYw1BOLZ8nGOepYGkPJUvoAADL0ZaqAK6kLIGVqMUoLipwrdws4dpqKodxt7bEOUqwez4Xi1vu7o7afwyzOdD175+MoNuehy0L1HIcgh6ajOqtpqFWW0LbXjC75Wa1nE8dLVvbxQdxl1QHsQDuxOelUHrrZHnygzWQBDCP32uA+xFg1wrtLUx38fGvi99NoEvNuDc0fg1CYnlMWI/e6dsRMXsvBr5xGPc++wl+HkKX6S7N8BlmO9fXf2Qcqml9qD8OxfXNn0XQb0OteyX4uSTso/t2OKfAPLkzZ+hQ815Km5ANYN4771gjiiQXz12aNlX66zJoNRpE8W5xLgrzziAv7zQKLuRZ+qtNQn3Sce9vwM1/CMa/Pfo06t02BI3uedr2Qw66Y7Qb+93iZWosgu4fj2oPTUKNx6bZUrF16Tp7azmXAmzrY9FyatYTAXZrZskddmtmfZMuAdin7z3AWsNKMHqrS3rHv6rELXYU7N3j1poEbv85+9ArfQceGbcYfxn5Duq1fA417h3jG2pINaEFFszNnkXt+160ObN17hqBG5sNwo23d8HL0+dZwbEmlOxMJjKrf/l2sgxmHXRvmhaorhLX/xkobar012XDTLNY4gvVCMZj8WmmpnoE8i2MkTe04jDwv62fRt3f9MHNzLtGd4/GdVqN8y+D0OCBZ1DnwVdQ/X4B/BJs0T7BrK1WH3EW2S05681aci3PLn4VuJTWjPYkqE1VAF8WwNqITP253mqSOpbJDdYwYC+SdrDfQou7ET1StyJ8xi6ETd+FjtFrcNvj7+KH7SfRXR6Futo6824Ce9tIg9csb4sXUK0l4b3/Fb72HBqxEDRsOhyNbgvFrx4MwxfbjuLgKTVQ8c8AZiYIYtt+UtC6e5bKWlardLky7yafaavGKs1aunDKAM5hyfmKBWrpkTz0evld1P1tBBrf8Txq/eFpNLjrGdRvMtpGoDW4byTqPfAcarIirq5N2eRNqX1DUzHvo2v9wHhzqbWBmnZArE5p6xcDsvMMQpvhwO2a4mSLwEv+MDt9E8jfe4D7Jq6zvlyB6y9/gP2hdeDqqGV0tqNbHK3w9D2mB19dTHc53laa0JQ42+9Hi8URYGVy3YeYqcpgrT/FWLj2g6ypW/K1O8egBq1w3T+zlv9zV9wfOgr7TtGNtoRWivvgtT4OZ3WZHZTyIHDaVOmvywBWJ3BeDi5kn0Bu3lEGJZk4Qxu85OsTiFm4HUH/2Q0/um88XedXcV3Tqah7x4uoedsI/LgN8/a2XraQgeZBK6+rtXjWQFblHNSSFrnlK6jZehpqtI5GjTZxqN5OG3KrmyndNmirobWibSH4JD94faoC2AGssURvrduLEYnLERG9EZHJ+w3gsIRViEhbg14xK9E3bh0ikjehf8pmhNOi9ool1IR0EKHsk7TNoA2NXo+uU9ehJyuBiOn70CdlD7rEbMKA147gkUkr8cvwdNR/kBnXlNa2KQGW6G651RglgisJ4FLRGt/xDGo9MMFWsahzxxDccFsYfvTHjug3ehpO0zBkaVt/+1NqFyKf7p5e0W3mMjZWZgRKmyo5abCGJz2/6E9Ptet6YQnyMmV9c1n4c3GQ6Txv30nU+2MHXN/kCTS4eyzq3Bllqn3XKzYzq27TAajTrJ+tRuLWsqZ3pUX6bOF75retg02ILTaegGqPTCPMCbbipbqaJPUXW5eSVvvoRvc6mDEyFaTdGtRf3CGR0Ja53BcD7Bq7anadZQ1mDR55Ef8d8go2MOpSV6T2orZe+/+/AzwwfQsiU7egX9JGhMWvM3h7xjCejdtoVjd46hpEZOzG0LlfIyxlJzpNWYdO0zagd9oewnsM/xE2Hbd2mGa7B2jhccW31e99FjVZE6vBysHrB7AHsT1mJjd5ATUfnGCt0jX5/evvGIra/9Ee/9GsN0ZPnGWx2I6DR3D87Fm7NVne7EIN74ctVFcF8LfrWwFWmVGHu4ag8W/z3j3WaLX+XB4a3/YYbr2PbnLTp1H7brrCd0f5pMX9RqNO04GodU9/H8DMcwPYB7Hy26ugWzBMUis1IQ56kGHVw1G2RrVgrql9nDrG08LGoVoXQkxV76rtQ5NNWu7WP2YOBLBccQHc6LGX8dte47E5x41w+94AHJG8weA1N5rHiBRa2LRt6JeyHWHJdLkJb2da31bjV6Abre+Qt04ZuPc8uxC3to0yV1iWNuhOHhXj2mqLdKM055VQuuVl/MVMJbjeUXsDVdM+uHfQjb7jadxy38to8IeBqPPfnfAfLfog4f2VOMp70jjkA2fO8J7cWAMtTSsXuwrgb5c/vJ78/7TykF7ae0Qjn4F1J/Lxu/b90eAvXVDr9n4E9VnUaDoW1ZtORrUmE2wtL7fu11DUuGcw81outAevH8BeBW27ULzMx5oAwaN1O41H9QemovqjUajbSduRMk7uGGeqYYq3HQhrUP6NXwLXgex2bfAkgK9r9Qr+t/cEbGWFpDKfSa9CbSX/vwe4e9RSWtu16EcXul/qZkqraGwzeENohTtGrUUoYe436xB6pu/DQ2OX41d9Z9sGYEH/N5TwMv4hsLUZy9a5j7Uza1yDV5uGEWpvHeTSY1MHr3dURldvwcy9nRn/l6dx0/1TcBPP0fC24bi1yQD8rFkI5m0/bjN1tp86jeMFaiMFzvMf3WoVwN9N+tO/qgz3HMvHUaan1svuPIoA/Wcr/OTBJ9Gg2ROo3Yxx7T0Ez1vLi3lmMa/A1VpghFZrWuu1MpX3ulRR82hSngtqrVwyDg3ax6JeBydtBl6nfZyty1WtbQwlqL2tWzxrfDG8ngVu+OhLFgNvossmL0IAfy8scK+4FYR2I/qnb0WPhLUIjl5tXULBCRvQJW49QlN3oM/cw+iRsR93jPkE9R6kS6SVJP48EvUfoVt0OzPwTlraJi8alFqpIkibdLGmrnXvyxcvo1r+SKDrtXwB9R9wG3wF/flZVLtjrHPZ7noeDZuMQs3fd8W/t+qLlMXrbPLA4dxCfJ2ZbwVP7S9VAH+7vL9A76kRUOXjKz7YlQU80n8q6v4307v1q6j1x8G4vgWtbVO3IL1zi/2kFmdrddZzz+qWyRb302Mt00srrspbex9rC1WrzJsw5GryHGo9MA51HpmI+q2moEG7aQZ0XUKsTcart9Y61JcCbIvP+1Sjy0wbOFL/4Rfwn8EvYd05WGX/vQG4X9p69J9Bq8tYODhuFYJj1yAsYxsi5uxH+Kw96D3rAJo8twC3dopGNYtpKcW7inFUo97Nx4Qt6E4+vkOd+xQhrt3sFdRvMd5ADaRajH1tK5JmT9rKFvpsjaba02cyzzXF3DUVnoYthiHoX+/BHeGP4/2t+/AV709xsQDOpsWoAvjb5f/n/7rcas1ZUF/vXpadbk/PxK23R+KWu0aj7h9G4Yamr6L6X0YzT9R//wTzXDtIUC1YYbdkHqu/t7mvV8Ef7PIAM8TSLou1WW7qNn8Bde993naCrNmElvouhV3PmAdX6/6xqPeI21ytQbsYgpxgewNreKaD2IuFLwXYvxFr/XnXiPW9ATg8eQ36pG1EWMpGhCauRZ/0bYxx96FH6jY8MuFL/EuPJFzfahwzh7WsBmMIXo3CYS0q16iOuhiaTyCwYwkka26qZhM1dLD2vvtFOzr5oPWptiBn5tVpMpJWd5it8Fi/JV2nZkk8bwoLSTx/Uys4jsCNjwzBdU3b488h/TB78UrbaTCbVqPKAv91lf/Ta15crKkKy7/KRpfnUvHDppH4f6yg/6nFZNT5/Yuo+YcXcD3ztWYT9SQMZ74PRtB9QyjC3JJlgBVuUItJfJ2ek0HsJwLqAVyNFYB6GDRgp3Yz5jcrZakuQy9tUyMXvVaz580ya/vU2vdPIMhTUL9NnINYa08HBNjtYqjnGvHVuM1Y/F/4JGwnr+pG+odpxPJGJBnA6l+RbLRSHgEutFFN763ZjScSvkBk9EoMTHZrOGuscnj6ZoTEr0PPpI2m0OTN6DNjF0KSt9goquseVewzmlZ1JKX9e5g5Gnyhfj5l3H2v2ibU2oy6VlO3FpQsaV1tQk14g+54mgVAblg5y+uJGXn9Azzn7Vor6ll+fxp/j+A2S2AhiOb36Y43eRLXPTwKNe7ojKD/piUOHYqMz9bhEK2vLLHiYd2/5seqzpWYNC49LpHeYAJdUOMG04zfc1MFXa56R/tM6We/Rb7veL95uUcvH+23/H7f//ht0tfkBksabarnfNn3QNen6/TdvF73vUXjZA2Aqtw7PhOPm+7tj6Bfh6DebaNxQ7OJaHDXJNS+/VU0vn8yLbAAZv4L4JbMp5YsDxq00YLhUwUArsHKXgBrCmJ1Wvcad462PZkFcT1+rvFDjINZjmorTqZLbat9MDbW5uW1WseZBRa8zn32jd7ys8BBHdJt5/4ftB+P2wfG2Lxl6wfmvReVsHRYXiuP3b17CpSe30WVAthFMdYPYBfqXvddpO9dbeq1fv9ZTJy1GD2efwNPzNyFLlPWo+f0wwibfRzdE3eie8IWtzl30g7c9/zn+FmXWNTW5tZyn3g0q6uGJrlNGnghaflUHe9xu+h5jVI6lsrXaGXHb1Bpy3QzVgxNaXGbslBIticRKwfVzHSzNeqnUcuBqHtHKP659VCMnLMCu3h/Fu+wmsphOhTwrllk3ahLkc3KV6urGuV6g1YHzNQLRZnM07N8qtFHqqG9wu47asBI6fHb5AqGnB6l+eUeJbFVVvEGOJaTfs8Tr8CW5lUlrdu0xQB0ckHL68s8/hXPw3Q5T1R93/36ZB7O8/H6A9l4uN8raNQk0m0HY1vBaAsYprcqXcrlnUBUw5RrrHIusiAluCbmnT0vk8vTMukcLr/d/lD+Upikoz5n57KtV1muCLFVEA+zIm+bjJpdZ6BGMK2uRm8RapP6kVul4Lou6bix1QvoMHauLVqvbiSZtSKtyslEtuSgiiSmgaU9PyEjV9mx9JUC2NUuyrosyq3CIHCVhyZ+JJcfOUlT9VLM2xgd/ykGxq+ky7wbnZIO4cFJ29Bn5hGbaN9u0jrcPvwDuqt0jX47wJY9bfSwlkf1AazhcYK4pR/E6v5hopfPsIrKMqyZCgHhLd0rV3I7F2h3g6DbWYnc+SQrlKdQryXdtzsiUKNJf/w6Yir6JH2A3YXFrHG1viItSlGBbSMi11oFtlg+opcYBglf1AobWi+55Bx5ZV3tAXyRHJyXAltebsWQ0vS+TF0EsI7fIGW1d/QXr8Du+whv6UimWz5HlvZCIR/l8h1WVkU+eHNzL2DrnlPWVbR0Vw7+1HYYftIswpbICZQ3V0WsDGSdXR+yr2JQ37E2PzeAWYkL4MdiEdSanln7ZLPEmhShOcaad1y3QwZu6pqGW9o8h4mfbbc9oE6Z95mDHG0gr3SjlJ0ewG5lEs1mq/x01CsDsMnZn/IAn80qNhud8NoXeD55IXpNmG8DNPq/fgZdUw/Tbd6Dvwx+C43uI4h0k22LTMa6FvvcTZeHCWtDIg1kTwLapwA1bkXlamzV4ARVsMoK+1QKsFq4NeGhOV2u+1z/Y9AdfVDtrn64/t4wPJnyLhZsOWBrVZ3W/TKjPIN77pwAVQ4yNYoFrmDlY3vOxzLTAWtg7zUdv03Oja2M7PL+irzPlf+u8vh8rsIoXx3Az+Scz0RBjuDVl/kidfRkLs7wdmWZXkr/HP/cLBz/1fpJBP1XF2tEDJQ3V0OyvLYRHD0A9S3L0puFN4iZ97LED06mt0eQW9KwPDQFNdvFom6nRNvapVbrGNRvm4j6D72Kf+v6ou37JI/sVHEmscxmEtCwMaEs7XwAa+FCBU9aFftKTEe9AgATz28BWGseneVHVu44jWcT5uHx5OXoFbMa4TMP4YGxq/CDVpPQsOXzjElH20oLNe56wkCWS3XdAy+h1j1jTJpRJFW/SC7OCZQ5FVUZxD5r7JPtLUTXusY9auB4zq5BrnSde59A3RYjUf1uegm/D0bQL+5Dr2fTsfxgsbU+nuI9n2Zmaa+FXPrPRReybI2novyzTCJmaDHfZJpYiaeUjEqzQHI1tTteKt/3fN/3znNZR5/MKvjkPffe+za5MiBQi2hsc3D2+HHWUyoP9j92Hjhh7vLXfEldcMOi56Heb7ug8d2RqH/XIFzX0jUwBcqXqyHtm6wdHbVBnINYe0R5XVIsD3KnNYrrXnlortW72oPjUfuxKaj32GTUf3Qybm4XjbosE90nvQ9t96ZW9XMEuNh8DbpgqmiZBqUA81VJm80K4r97gFVOj58tsqVK495cgSeSFqPLq5/gV6EJFudqU2s1LtQlJA1aajNpJqAarG4fiRoE2tWQrpZ0UmI7uQS/EgCXgWwDBfxiaetm0G9otNftI3h83Cyx3Oladw7CD+95ArX/Mxi/azMGKZ+5xdDlRn2Vd55ZlEudZxYx3r1Aa6wF3GWZlCguFy1zAwNqWctjWaaXl95zecETkqjLP156fu+5joHEr1keS5b/BedRcvYIIwIiarO1aIVzi3CGzoVi40P8qS8OAX/u/gquv3MA/qkVw6A/DkD1JhpkU7m8q6wMYJYjraldBrGuy1UqXsVejQBXs8YyXruvT7l2ixdoYF7BzzpMxs9aP40P9xRZ3p8mqVoOIr9AtlieCNNEACufLwJYUfLfRQx8McDlM1zxoOJgfgILNhzDQ/3G41dtGVf+Vwit7hNmgdVHF/SnEQi6jbVhi+dtel8t1YLak9aGzXkA+/bBbaYEH2G1p5fY31Vev6HXOOJe9wNYI734mq7RWjObjvZ5BaNtUH3tP4zCPzV/GY1+H4Fa/9kWnZ6KxU66ixqNszfzOO/bLZGqgfqWdUw2y0Emmz3lc9eCrbQrOzqVgVwm/0Kg7ysfmMjfQSo87vwXn/NiuWvwoHVyhU55fuEcq6sCxrkK+EtYLHmSU3x4lGmgnQgTFn1tm7VV/2Mf/ODhlwxcQRD0F3oyD02wtC6fJ1dL/hbY7a3stme9uEy9YAOCaregN9iM132HpqaOQp27xuB6loEf3ve4bQ+re9WQW7fLVS4Kc1mhmQvNBPEAZpKVpbPai5h+lg+B+aqIriDAbpqdLt9doNPpM3IneGP85wCr5I5DJ6P2f7dCnT/2wE9a0zW5Y6QNgWz0yETUVgPV7U9YAtVo+RJubB9Nd9b1/1Zrpk79J1BTNaX2CmoykhXA45UDmNCWH4Inq+DfSi3JjdaWJfXuV0aywDEmDmoyxvoQ693Na/71ENT+4zD89KEx+GGzPvjn5t3xVPJrFg8dLsiDlkVVXKz0YKpBbTzKV2Ws0lGNf8LI/+hUHmgHnL/Mmn5H6bv6HdcN5uT9Znm5guYTP2fnUExfTCtDePPOnsaRo6dsp0VVXnNXHEW70TMR9B8dcesjL6DRA8/boAo3/PUZ3KplbZrIml1LgNWI5bZXdYZClbW/V+Aq8RrNNJ6AYRQr81p3sAKn11iXXuJ1dw7Gb9o/hcnvrDTX+WQ+80RdR7K8BYz4tfOEKjnmsT+8jg+lK/Pb0vRStiqqSgKsguAPsApVGcBytwoLleGslbPcYnFvLd+LH93WCf/VTo0YnVGnOa2xajZmphoOFFdoNEz1+xl7aJhkM2a8qTzITpVyw0oBLhtL6wAug7iarIUmSijzmr9oHf7qXw6661nUbTkWt7SOQ+275UGMZKYOtznFdX/fBf/2UAQeGfwyVh8pwB6GQ+rzlNG1tdKZx9YgzecOCHUpfJMEdfnnZfIH8vLlnVt7Bnr65t9yv+fJnaMkL4+esxB3XtaaQwV4KuUz/KYT8+y3ofjBI3Q7/zTEZonVfuBVapwNmFCaKm0D5svVlJWBsjLkuc1eOFXzHnoNrHCq3U7IKe3JfF0THu8YgUZ/Cke/V2fhKDNSg3tYnaG4iO4HY2AUqvVdADs32eNCMjZKK8bAbFVUVwhgZXxggPWXmZmphf2tAGv1/2eS3sNvWg9Cw7/0sFFQsrY1tYICATZw1XCgRgPN5bThcmpEkBiHyM01SynYnNW8KEMuR37nuVQXg+y51M5ilDVy6TNWi6v1vCkz9u5RaKQleu4cglvuiMCtf+6JyLFvYO2hEuvg135HRzNzcU5L1jLFXEq5rC0qzHEFwHteRBeMNbilnNLZ7LiT+pKLCzJRUpxvi8F5KrE4VDjp3BdLi7KXfsZe02/nWiNbXt5JVrZqJ9bvS/qdQuTnqTFGn9PeUTkooEfhvssYl/fhszfYduwCJsxejD92ZgX7286o9odw3PCQ+tCZR35prn5XGxVl6XVt42AHKsuUKhRNbrCuRF9Z09j4O5+1STI3t5rKuH24Wd6ftRqPen8eZNNOHxiYCO3MqE5UpYMVd+smZIoU81Xtkcx8k6VVirsUdakpVgIxdbm6ogDLpXNFr+wiiwrzbXlQ7Uyv15TZe3hv2nnvlrtC8cOHac3+ONjiXVsW5S4+v5cgPzyFicjauzlhljSsUVPB/DrvA2XK5aoM1PIwXwrwRfBaNxOfa2f8e92cVIGs4Zn17noODe98Do1vfxr/dO+zaPS/vfEfzQdi1LR3sf5IvoEsLBRcZBEIrX5pjnQxofZ8a6WmXFSlJt0ywVqcd54P+U2r2QmZCosvpXmCwEerRb/pfX1XsCpXpCzGalmE9Dxycs8hK/usXVu+VTYskz5lF5SYhPJ+5uW0d9fjzu7P4bo/dEX9v4SjcXPGk00YCv1ukKVxqTUjvBq+qFUlG6gxUJNFygF+NWXl6C6VJZatFhNpODSyawLLGWG2ssb36HkJ3h8+MhY3NKPH99teaHxbfzTpE4/ZK05a15jSQeni0pv5pS7DIvojahewtiEB7JbQ9dgwfnwNiZXRlQPY3ISLAdZr+dlqi3SvnMs8b8VFr6w+lI2nUj9B0K/a4KdtXsQtDxPe2wajVotnWAvSbf2jhk6yJpQFvgRizxp7UAXOoL8mgWm70pfKjcxxo3P8Qdbnvd/i76qW1oAPNb41H4FqzYfY1DZ9XiOIat39KureOYFuFq/3P4fj1rtfwA/vHoEG/9MRv2weikGTk/HJ9t3Yl5tvu/GpAAjVbD4+X1BsexZb+lHaLVGWkyaXYjpKLBwXCHNhznmrIAuLactVdvgN19pZbKGLwMvLowryeR7NTzVqff/qr4QV6xl+VlWKs7rKQflRKpC6Bl2bqonTfLDnWDZO8YlQ33kkF/FvL8O/PzgQP7lvCBo3GWBdQ7V5n7XvGW1dbzU1+MaXR0pDWd66TZ4q9VIE8TUFWHkpeJsT3uY+eJsR3ia87ibqQnwW9Zo/i/pNR6H2nyPwy9bP4obbe+OfW0Ri7upzZn1VEWsugMFr/fuS8kjtAy491bbAKtik1LV84Mfd1wKzVVFdYYAdqg5XvszXigtkLZjrVF5uJk6cpfJKrIFHze5RH23Dvz4yDEG/bo+fPDgKN9w/2lqc697HRFSLn/riBK250oLGA1gQOTc2UOZURAawTXRwkx38QfYHuMxNZ41cDuBqfgBbHM33qzdhnHfXZNS+czKuv3caM/9ZulxP4ae8txtuD0WtX7fEf7fqhT6vxmHh1q+x7uA57CdDx5hMx5nv2uxMjUEahnomq8B2KVTMrHy3fidf36uOMrBKa5WFy5XbDdE1jWmNEe3/ezY/Dydz8nA0uxBfZ7nezOP8sCyNGqc+23oavZ9OwP+0ZEFu1hv1aHG1q3+de0ahDr2R2ve6NLOWZqalV/E5gJ8xgOvd7UINHZXW5fPlakmVS/X7JjMvCW5T5ie9KpUrXa/grd/8aeYfK5nf98KP7mUF9dt26DI60cqt+rV3nS62uF9dQpYLBjDzRtJ4WlWsTFn9p23NNTfAJv6IHS8Trj3AvHhraQsMsLkR2gSLbpmr4d3eQ2f5dRUKDX74YncmOj8+DT/4U2f8sFk/XH93JIJY493adoJBZJbOLK7gcfJi0EAZU1HJLbYlWmgx3VItmvhwMcBe67Q+by7VRQCzAGg5F58L7T7Ha2JhqNZ0HEGewBj/FduMq6G++9t+qHtbJH7R5ln8uOUgBP3LvWj8f21wd/CTeC5tARbsysYBJp5aNI8y6Y6wbpS1U3rJPjLkxOlzeTh7LgfZWeprdI1HSm/tRKLlpSQ9Vvr7S1Y92+f6ap2vczkFOJWdx4qiBGcKC1lplJhnJMkeq4Ldx6zdyhfWMpOi5+3AXb1eQcP/64xGfwrFD+7ivfwxHDc//IKNUtMigkG3P877HmMt9bb7BSEWuFZR+ipHa81l+irU0FHvlc+XqyeBSourTdDvdN1F/197XwJeZXWtfSRMCQEik4Klta3/7d/bWkVAEjLPE0pF1AJSlUFmSJghjCKTAoq1tlpr7WBt+/9tb731Wtunf6/ev9OtrVMdWrUOzEPIfHIy8d73Xfv7ck7C6SDWRJ6c8/DynW/Md/Ze715r7b322gmFuywSsG/6KsSnUw4vvQEfLliIfym8FV/72YvWiL1Nt0Ex4LJOFAGv8VyrBX+M34NmXImwIq+u01ZNpeOFR+IPPIGbpYE9yHezH+EE8mhDC46xlZeAqqX/5pPPYdy1ZbggfRZGFkkr32Sxsm5szlV2pED436NXzt+HI/Bu9M24M4LEThO7v+cTWI2IGyduJ7FnAeg6mYGRQxB2jdfgDPzsvfSzeC81cGLRTpvGFvj0QvRJWYVPfO5uJFw5F33HzED/K6ZjVPZ8pN6yHUv3/wiP/uoAXiBxXmUrd5CFJWKpnGTOeu29Qd/9YyrTIGVImltzbSVWkcf96/ytzqvc1UN+lFV1kA98kyd+f+w0fvCHI7iXpJ1+27dxcekq1sU0JOWswMXX7cb5RSRfmlb634TAJ+bQ9Vlj4YSDJ+8hebfZWK/G88+/2s2ptnryOgGVOMH6D3y8x0b4vUDv1SdnO+IyXMMyIJ+NUSZ997ELcN6YWUhkQzU6dx7u+O4vcYDl+epJNp4sJ5XfO0cOkH9mt7AeVDOUeheV48DrpIhlNgd5TtEAjuy6jic1rqTrzh0C19HSrkR9zXH6Zg0mQIIW1a6rqUVlrcK/gQMsnYr7H8fHi5diVMEKDMxcjvgsDbTTPFPPZdbmdsinem8EpulM8vZNvytMYk8LhwkcESPrE9jIKQLvQvvcYwmnnqtr8zciUEDzX0ijeXnVLgyast/mLvfN20uNfD8ScknsyzdgeOlODMrVENRSaudF1gk0MHk2RqTPwcfzF1qY5oYv/jse/vGzeOr54/jTITZ6LE7X+lMjs9AUZ8x2sJ3gRlhCzaW2dayqegqTvuu8jp8ky9+sDOJtPuS3h+rwvV++ip3f/hnm7Pga0mdtxrC0mxC45CoK881IyCwnWTU+TyInr3UNl2KDWQZDb7jPyGt5yRSplr6O9bKRZbIBvey7+hRU3r7lQp8zl/5mLk3XXPmcsqQ61ktXQfWlnFvxbGAH8T0HZ29A/5RyDGJdjJ25EzO3PoLH/1iNQyy/Ayxcla+N3rY6W6Wl+Sj3uW0nsF3QicBa++mDTGD1umk8kd99f8x7LzumH9YaqkJbkOrEm1vXRsKHeE5n25ooVubPUaiqgu0heP/x3Al8bt0DuCDtVgzNWESzugyJ6gjyfCf5UiKxI7Dzs4SwmevBCOefd5XmyCnBorbNJHEz9hqRIzWw06hEVALLV6LQ0ozuleU0t01/07voWvqCLnsEfflr+A7aVy5qtfT5bCzyFT/7AAYU3Ee/cbsJfSB1lVkbA3LWIj6tHAkk8/npi9Gbmm/gFTdiJH3nT+QvQPJ1a3Dtkn0o2/0dbP/qk3jk5y/hB///NfzkD4fw9KtV+M1fGgy/er0O//WnavyS7sl/vlyJJ589jB/9+i945Gcv4O5v/xxr9n4LszZ8Aakz1+FTU8pxUd4cDJ54IxKTZ2JQ+jwk5ZYhKX8NhpSyrDL57un0VzVvVsH9/K2BDEIdixo1oNmsslL0nA2nUTP3ZznE52+LMJNVFyq3CALncStXJEp9Gby5vZE4g4Ttmt3T5HJjrA7C0L47HmkNqN+DBE5ZicTUcgyjohieuQwX5SxB1qxduPv7v8NrFFdZJwfq1YMsuab7F6xGKHicIivnr4YyXMvjakqdDLd3ThEisDqtlIjY+cARBP4gmNCCXkZE9fdFXEfe8Pnw4L97eSM7f5iusx/sQRaI3Ah1rsgE1Pjat594HpPm3o6h42dgZA61ctF69Bq/FIErlpgGVpSMJT3LJiRYefQ91TGRRw0h38bv9KJwqIJl0vljtqbBzaSTz7rLKtbIK61BgQxH51AAeG87ea03nNpDwpjj7usoQCS7L0D6bpDA6ZqwCam/LYGyv+f9Tb2Tez+aoVrEK6eCpK6w/FwJmauQkL6SBF+B/qll5k/HjZ2DPuPnWgDJQPpsQ3KWY0TBaowqWY8PTaKGz1+FobkrcH42NUvGUgxIXWTXapGwXuPmYkDWSi8W2MUDW6hqRFhhpGsQLgPCI5t/3JEjGrzznRtXqxORV2UoTSxiCzyWx3OKPaYvHVAaJYPK1C/LMBnNAmpvQHWc1o81nqsNcaVqTPmbirdY7jOZzLq+f/Y+JGZsw6CJC3BhxiyMSp+Jy65ehPX3fA8vH9NcIpKXrKXEmkJy8uzLugvCcHDRaz4HJMeCib7tqpvQdRX697jrHHyenC3eM4HfO9wP9X+4D3MneFyF+HolsPn+H2N0xi0YNGE2PnrNbRhewspi66mwS5Gnj3qoSSbrSbSxvH0060ReTyho9kqIVMlhAlO7mmBJmPzzPskdkSIF2Exn/R0jMLWHtvZcX0jfPUwj/A0o8kuhnIL2LTIsi0IsZG5EQsF203SaDKKUMb2zqA0zNlCry3xfjzheEwmd96F8U/bMbgPL3pIosL60NRJ3InABy11Di0Zg1yBKo/oNhBtB8F2YSALTahCJs8px4Yy7kFDKcrtsIXpnbMLIz34B5+fvo6m8Hh8tXIqPZH4OU8t24CfPvm0deOqXOVapb5JFKiCLZ/aVj8joZDNsaUaT665BtxM43CoRZl50LCiZLgeoitX79yz/m7r2AQQ++Vn0HX8LPnLtNgwrZSVr+ZTUdRhUeoeFNwbGswJTNiF+8hedQHTQwq6iTcOSqGFtECZw+3kPJhg8HtbAPon13AgtdBbwifrX4JM3OraSuErSttUgAqvhMXJ6hBWJRWaRWsd1jcgu0isjp/5GtPfqKpgV4sE1poRMZz9JnW/JECKn79a4uvG3fj2FTWVfS1tWFxJXiQtHX7cPfSaWIe7KRRietxaDUm7FxJkVeOinz9loiCh7WJ2qsnD5vUVjuUZebxsjcGf4Jogfe+t3zSiyy81uqmpssi6C1yqb8AqdY43B/fCPNciYR3PoimlmPg4v2oihRayoCWXWcTJi6n4M/izN6GQSWYSLhBHVCUvYL+tMcM+s7SAcPom9e4y8uvf9JbAPn7TSyIrJ9qGx8mgETaD2ErQfCZ/sRnia9Xp2tPfqCqhM3ZCScx06ElF9Dx3hiOvCVg0y83PXhldnsHv5XGsQXAejkhWeT9/9vORy6yj88OT1GJx+Cy6ZvAxrHnwCvz8GvEN+2jg3GVlDnoqY+gQbqDn+CoG5FyOwI7CIqonNDs7zFbTfiMbWIILeGXUo/PFUCxQB8xIPrHvoSXx00jJ8qHg5Rk9aaz5ffEYZApfPw3kZa3DRtPtMUMJalqTrjKga2iNwBIl9AtvzTBPrmSJv1xBYiCSwprcZSEJNc/Ohd47L2twOpVLtJy1N6Fr/ev/36bnR3qsroHKVn69RBnXgyfd2/rc3ud6WTPERJq8fR61re+etRK/85d5YPEmufgx1LGbsRf/0O5GYRaRvwSem7sXFpfTzx0zGpOXb8bM3T5gcibgH6fC+fqzWeulFypZWypuWllXWFCNvdAILPZrA0rBuYrOfXsQnbySJNZLWgqM11TiswAMeVRTMq/yiCvhv2j7TNz2E3p+ahPhxN+CSaypwQckaxCUvRCB5mVW4yGckzhFJPV/LOk7kK3vkNYRJKcH2hdwnsI9owni2iCRoNNiMHS8gIlILtxP57xDY/w3+eZ/EIrTWk4r2Tl0FI3D2WutIi8/y5njneBPrc9e1E9fgNaTS1O1DidnUwB6BTROL4Fm0OjJ2IT59NxLTdmFw6m0YMLYcgY9PxYRpG/DYC0dMbpR04TDl6tUjymDlhjQV4HKykmqCRNXISFuIzD6DwI7kMQITjsAK7JAW9k1o6VpCUxS5bWioRI2tXOcK7mRDM6rbXADCQV4us/odFuK/v3gcU1behaETplm44sii5RiUVW6CIVPLEU8kluYVeTWUwa2vfaMQWPdEktjHP5PMkWSNBp/APok7I0DT2ebZ0nzWPGVLo6oOLZnP6gTicf+c3tc/L/J2N4FFSkvOkON6wvXdmcMir8zmsE/rrlejynf3ornM7DYTWnUs7U1tnrmZGnczBqdtxpDUCgwcswifuXozdj/6e/yZfDxE2XmnMYRKyl0NZU7E1ahHNZVDQ4NkTj2olDSStqWe+rmNQuYR2CzGGIHDcF3simdxHVnyhy0wRET2Yqzdfot1KDS36CpXgBZxxK3GjI+yEA9z/xWy+u4f/ApXTC1DwuVTcWHuEgzOXGYtvLXWrPQOJLYeao+4Zma7ThTfLHYCE53EkWSOFMp3i0gyRkMkgaNBZBQpfdj7ULB9+A3NX0O0d+oqiMCWHskIKCJqvaMKWkVskKwjyndXCHNv5NtqqM8N9zkSuxEFN8NJkyTWIil9JYalLcPI1AUo2/s4fvJijXWCqpPqlNf4++O6TVq4XR/KEOmI1sY6gxHXpgZGEpgyGyNwGI7A4YIQXImQptZ9Hwke54Y3hceLuasoI5FY/rEg8+ip12uw+M5HMTp7NoZnzkNS5iJWbjkSsteztZcpuQ02VTGDwq/JEmzRtRha+6qGCncUOWiiOiKdSWIJTlcQ+P1GtHfqMkiz2nTMCOJazzPrwCax7EIfBY5ojF9L52irepuo3vWNiOc1CSRzYOwq9JuwCqMn3YbRRaswLHUWSpbciW8+/Yq5W5ILOWTycUlHkxv1IofljUdkIrebyyKtD//YmQTW1m7vJNddie4lsArDgwhphcGtSGpk7QyVmOB990NP1ZpWUzsfC7W1T5B45lATvvvLN5B582ZcUrIMSam3mjY+n4IykIKiNLZDJ++14RTfX7SOHpqdEi4jcZYjpy/skST2e01jBD57mJb1h4lsnJfH8klI5WW22We0kFJZP8V3IU6pXbWCZMYWJF21D4NL70BgArX22HUYSaJfMmk3kq6ch4syZ6PiK4/h5drT5udK69abc+ZPlHSyJh1hciSh60DeaOB583+dzJrc8lZ7lmS2k1x3JT5YBFbBejiDtNHA88FGF5bZwJuqm13aHpnWMpMsJxWv2fnIUxgzZQVGpFEjZ1EbT5yPPhPmY0DGCusBjUtdbWPJykWtTJkipc2kMY3sm9S+XyyENfJ7JUH4mWeHyPc7O5z5Tl0FM5GNtIT8dQVvRJJX0ER7W7iO5jItogHFO9AvZ4NFqA0vvA2fuHo/Bo8pR59LpmP6mq/hRbbgMpcP0eWy1L6UhhD1r+solRblSV+upEb13Qj8NyC2dyKwj84y3dXoVgLzXzuJoxLY30aSluXZDp6rqalBiK2kLmvmjcFWkpn3aTzvGG0mDRFIK//yjQbMWPdFjEy70WaYXFy4FP3GfR6Ds1ciPoM+crpikSugIHzlb5L/aEn2fB+s3TeOJHJ0wXw3iHzW2aAjGc8GZ75TV8ERmGUbjbx+BF3aVgyYtA/Drrkb/dWxlbwU8enLkJi51HJSJV02F8Wz78NPn28x4r5FW/mtWqXzbSOBldK3lt+qqXt5Qv0pnWVK+x5BO4CCGU1mP0jkFbqZwGe2aD6MxD5Ynu3wVbaggHB+9D+fZClpmppIZt5slxLVrLM3TzbgJA+IyE88dxDFczdi2BWTMDpzFgZPnEeNTGHIXGlpQuOzSWDlpVaAhAmZyKsOLiLH4Z8p/NFI+W6g94hsZN4tor1TV6FdA4vE8nnbRwOIHE013IGP3fSwi7T71Byb0DK6ZCWGZczBhVmzcfk1y7H5vp/gDTJX/SCvH2tFPYWBVU6rrBlNrX5sgUB/1nxdyQ13CV9ZnCGTkiZeFg2dr+1udD+BWZId4QrQPx9uEX2wEpSyRNB3fngVtbeXeoZ3+7Bj/Kaj8pOVvkYVrcR6dz/yH5hw7SIMSb4J/TQhYOxcxKeWufQp2RvNJzZyiLRG4Ejh8sj8TyBANFL+o3DP6EjId4vO79PVaCex/04sVxFXPc2a9B8YS21L6+jiSRvx4aIy9PlkKQZeVoqFux7Gy1WuPt+ubLIMJqrjkzWNOFUlbcsdEwyesNUwBB4gnGy17zpF7G2jwb9OcPfyWR58Oe0udDOBWQDe+K9SpDm4MWEffopTf95xuHeQrSpN51AoaLmfWv1MixrDa2lEU3016mtOoimkpU2UlqYRJ+uDqGG5y0+WNv5TNTB35//FxLn3YFgW/ahx89E/fQUG5G6yDq1euZrN5JOX5lxk1JZH5PeqiaMR8x+Fe4YT+rPCB4DA6k+IhD88pMQHAzIrMDBtJT5autGmlQ78zGRMWboDT/35lNXfG9VBVDbXUTo0VS+E2qA0LT8UgyZW9Gl1PUsdSzTERNa9kY4HJWsuiMg7TXJqGw2RJJbctiuUGIHPgsD++LBIrH1epWcp+ZsSvGl+8WmlZrVJERrHC1Ez81nUxvKRVSG8E3Ws5GPcOcTvX/7Zn5A3fw+Gp83FwJRbzS/WkFNc+gYbdwyPHXsQiW3L4zbsoeEPBR2EAw/aicb7I3GmAJ893DPCmutstp3f593CntWO8PHOxHSIvFd/W2Xij+2GiZuYUYGk9NUYmlaGS4pXI/6Tk/GZ4nn40g9/jQOsWlsNscEtmscmHI2nT1EKRF7KQFMzq5wkE+skHoLPxKgEdj3TPvxLffjHw9rXI7CHsCx3D7rdhDYSvwtEFl60Aux83l3jrvPNc1WGKkUm18Fg0Frzd1hbd/+f/4eMmevwocy5GJq6GIkpy9FLY4xpSreyDwNL70Wfwv0IJG9G4Er6ykU7ESikv6yFpzV1LV+J7bywP4sYuh19Mrajd6aHrB3e/OVttu7wefmRAv1e4ZPx3W7PHkbaPFoi6nzSVr6sSMwGzI2Xu9hl9e7bWkiZigjbyntJXM3hVj6qtD0IZN7FstqDhKxdGJSxCUNSV2DUxAX46MRZuDx/Djbe9Qie/0uV78naeK4/puvm2WqASD3Mrp554K/CyYmTiXaXTbf8Hfjy9UHDB4DA3QdVvjIFvnbyHfy58oT5U88caMCC27+O/52/BBfnrcZFNKcTU9ajbzK17Nj1CIzfiOHXPYgLZ34DgZQ1JG+FI7HmoCoooZ3AW1zIX8ZWknebAzWNI7Aj8Xn5751E3QlHYGpyI6+n2c0CceQV1CEo8losdv52C5zRYmG98u9Er4K9SLzqq+hX8EX0z9mDwST2+amrMHzCXHy6YBFKZqzB40+/hD8dIHnZFisx36m6IOqanOlrmpEEjFa3PQU9msBqgY/VnWBL7gywk2yhFbVzkMLyyC/ewtRVD2FoykKMyieBJ9BHTl6DEVftxXk0rZW0/Pwp99IUpfBG+sOeALsgfPVkrzf4AfkSfEfgnbb9Z2jCboW5Cz4U2BIJ507I2uhVQI2roSI2YLbqQQ7381gG+p68Fn0nrsaQzNUYnjofY69Zhb3f+DlO0CqSppUVLLLKBWpoVnYpmsqssya6STECRznYU6DKlxYWgRUEcjzUYua0ondE4ucqaVY/9grGXL/FhpsuKt2AARmrbA2kwYX0fZMrLP9zr4x7aR5ym3UnhVpaSdFFLpWLEr878LtpaEVuUaDpQwvnMoFFUD/1j5/hRKaz+43S0LchTkvmFBK2fAnJKiIXssEr3IneWokjeRlGTdpoCQwvyJiL6RUP4tdvu9UrNI5fQ382xLpSPbWeVn+IIucd6kIa4z3TjepJ6NEENlBQahqCqA0p5Zjzq/5ysgHv1LuInoPEMyeAxXf/G0bnLaI2LsOw3HL0T15AwbsT8RPvo/b4KvqmfsnIrFxX1rFVQJNaqXGLVzgUOh/ZOrtEYMuJ1b1pVd8rRFatruCSDWpOr/JoOSuj3by2lTVYJiJvIVHCRqvYa+QyV2JY3mIMHHcd8uZtw49fOG7Rc8dZKW9V1qG2WYkP1cxS057WaEOVodWCI0M8Q0J7fm9PRY8ncPUpeb7uE6QWrmlstM4tmdRv1TUaibVI9dvcfv/ZoyhZug8XZd+KCzPno/elc5GUfBcSk+9HfOq9lp5WpDQCyzcuImlLVhH0lYtJXqWZlckpXzhzpyFaz/S5AsWDJ5K4bpmUdY7A9P2dLyzSEgUksLQwiRvIVz4vlkVaGQKpi9nozcalU5Zg1yNP4GWqXE08OMpWNDz643ch+91W9WhtrbW0rq1tDSRyiHUYI3DUEz0BbMINGnZoCbrZJs5YU6JQRdA24UCwFkcpJAcoRwd5y58pR/t/+FukTVuHUSnzMCJ5M4Yk76aJrUnkLlWpBekXUMMUEiVEsQhN4ZXJSOE+LyvcM30uE1hk1VhtYoZS/arH2bkHRl4lSpD2pbncu1TpaHk8czlN5jlIyl+ClAV7cfOub+CP1adt8oli1ytbTuNYXT0b0QbLHa6VEZuCVWhrViPrk1hpiUNobgkaOtdpT0OMwNSu5Kv7riAQ079Kxa0UKzUkssLhW0zADoVabRV2CdxTr5zC+i88htEpC3DBxDIMTVuJwenOjFQHjgvSp8lYdIeDNJGEOodmsxHY9Ux3HBs9t2A+cJbGbl2PuxojN75MAhuJ+T1rA/oVkehFa9Bn4iwkpX8euYu244GfP48DLHN1HMra8Tuq1DPhdVlxh3XhzcnVqoyap9vSWG/j/Ta2o+uj1GtPQozAstAkL1qMSlPHLBNILQWpmodPkc6nSGKROWTtv6K4RGZ1ssi8fuKFA5i2bh9GZkzDyNwFGFZAE1HLpSZvQv+S+3Bewb00F5Wjeh/3v4z+BXfZOaXDHVhMPzgKMc4l2HhusiaA3I7+V92DfpP2o1fhHfzddA/kSiQvRf+MxRiWcysm3LgGe77zcxxkmasMj9TWtxe/601mHQj+LCA/ZNbA4+3J0MNQNUar256CHk5gTyCiEFgUPU3yisQu+YoorEWqnCGnq2TYHZaZzYfc+/hPcdnUeRiaPhujSzdjaMEuxKVSC9FH7p/3IBIKHrSeaiVcG1i0xzJGBlJWmRaLRoxzAebrZu/A8BlfR9+S/QhctpK/aT3iFKCSud7S5AwrXImPXVWGebu/hd8eqLeSPVRZhWMntIQbC94IKxZqSxhRCdWHQXXk1VMUqBqj1W1PQYzAJhyCpEEEJkWNxHUkMM2201o+o57QAuVuoeYmXi6oG6WW1x1oO0ht3Ia3qBEW3fktDBl/EwaNW44PFdyNDxU/iPiUfeg1bjcSs/djUOE+8xW1XEm/fCVWP7cJnHT9V2hxVNj4btI1JLHWT5qwFEPzVyMpdS6uXXO/JVaQtSLrpVGklN49XY9g1RHWAb+rHjrURSQcUf8aVI3R6ranoEcTWHCzVCQJEipBJHZQjHar/C/6YRqDVMiexh0VUOAWrmqknj6KKhzHi8dfxWs1Lsj+mQPA9eUPY8TYZbgwZROGJG9FvzEU8jGrSeJtGHXdfgyZTP8wdeU5TWAhkLIWAybToijdjsSiTRhWpCwZM3H59RV44MmX8dIJuhpWViLvadTXVbFo61jmpHMLYaayR1afyEbmCKLKXI7cRhxXFUar156CHk7gVpLUdKq3DcfT8p/JkXIEi6xa69W/p1UpR9taqIUbcbzxMHVwLbVxs5nVLx84hhred4oC9ugTryHtmk34X9krcFHGSowu2oyE9NUI/OtsaNXCi2/5SnvQw7kIddYNn7KbGng+ek+cj6TMBfhY0WKsue8xvHiM7gV9DbkcWqT8+IkqMo07mlASrEOong6IZX+UBmZhebN72hFBZpW7v42hI3o8gRUMoEEjaVcLjPflxkhLAlPG/OmkvMXuE3mllVtIYOllaZfqpiAqgzKq6RvXU2BPufHkdyi36/d9F6OSp6PfZ27AyOJ1uODq29Erax0C48vPaQJbrPOYm5GUNR8jsuegdOkePPH8Uevgq1G5cVtVSZvEZs23obGuFk2NLBWWo86dqKJHbIR11o/fgLpJBp3hnTe4GWoGXn9mvfYc9GgCSzBEXnVN+f6t+kwMIq8gC88nsRFYxPYITO3RwHMnqEyaJKMUylCj9LCoG8ThI2/icNVx8/1+d6gW1669BwkTb8aQkgoMv3YPTei1UYlxrkArIyRMnIWM2VvwtV+8TGeChGU5aFJ9azMLppn6t5nl0cbykKZlAelwHb/WcquSst5nj4xuCqlbxT4MNbB+I+sWAGiz/glBGTdE+jPrtqcgRmBPOJywdCSwtO7fJnArgnSXdb1vBeq/tqZqyi7F+TT9PdK3qrnWOnG0rtNDT7+OcTfdhrhxN2Fw3mojQecUtS6SSeOpkXABH701y0n5uniP7rN7fC2uKC/uR4dM3o4I51Z2E+l1zP39SOj5fLdcvWOF5W+2ZOzZqzE4axEqvvoknn690n6f1haqVxnoI63aSF3cQBPESNxspA7xGi0da0NyKmeWkCOv+hcc/j6B3SoeRuCYBo5+oqego5nGfZHRg2f5haFj7fc6welwLbduR9rGdYQpWkizZtRrLb1sfvLBKuy47xGMn3wrBoy/ySVpy63AgMJt6FWgLCC7ECi8C4ESzXbai0DxPS4IJGUD4qi1hxVuwYhcTXFcQkJpgoQjv3xSNw/Xpb01omf5cEEXNsXRcDv6Z95GEt6GAakbbZX6gQW70U+J/DK3IMB7e0/aib7qbEtZTMzDoKIyJGqJ19TpmFrxZfz4xaM2lCY/V7+Nv9r9fCsotWg84vu4ncrLGkldLwLbuTA61kkYYRM6AlYXPRc9nsDvN/xPczMN9UaJuvscP34cT/3uJXy+4n5cNm0bElMXoG/qMiNx3xKlUyW0zvGkL5FMd5BUOxBfdCcG5W9Hn+Ry9B27kGRaYVrYacl/gMAkrE9en8DxyRswJOd2DORxza7S2kvnX3cv+l+tvMtLEEhbhmHXbcbwySvRL/l6jJlehnt+9F+2TInIK9JG+90xdA1iBH6f0Srb2xNyZczU1v9QR9vsmzu/92uMu34dRmTNJ5mWo1/GSsRlb0DC1XstqimQSZM6axv6FN9hk+IDyWsQmLiaZN9uxHVJ4Rw6m9IyjcPwliXRgtgeBhbsxXkTt/KZG6jNt6NvkZ4pk5n+bcl6jJy6CYHLp2BI5o1Y/cC/4WWyVp1U8uudCRwjcHciRuD3GVowS1t9tJUmVv4ukbm6oQlHyQQR4o06YOme7+AjuXMxPHu+RTAFrlxgAR8DSndhwKQ9JDGJlka/l6TuW7rPzfaxjBgkuL81/zkM5fOKBltQWzOnxm/EoKu/iJHTH7LlSgNjqXXHLaTGXkoffTF6XX4NPr/jYfzmiMu7rNjlNw6fwLFTNTRhY+TtbsQI/D4j8iPyirgaU9ZHZ6XBDp1qaF9x8b/frsOMNXdhRIpbZbHP+NlIzFuDeCUQyKK5rLnEV+2naU3/OIsEtPm2Iq++c+vDn1DgI6cjjLzcjrzpEQQytiFwxQr0ztuKpElbMCB7GS4oXIIrZ27A15961VaA1LsdrQmiqi7oXvx0C04cPsCt821j6B7ECPw+w//IlPbN6ciPVsdTR05DUzOqQ+prdWl9vvnTZ1C6YCsuTLsRgUunIvDpGSTaSvQp3elmNikhXKG0sAhMMnaGOr1s7WOB+wYSm9q3A+gHq8MqvuR2DC6l3zzxVlyQeyvKvvBDvETTQNaBGpeq+kazHNQl36ogjBCJbENDMQJ3J2IEfp8hrSv4WlcffVeHVl1dHb9LB7v+2IbGelTWVJPIzRYIcYRO8oo9DyN79iYMzZyFPqnz0Je+qS0EJi1brI4ubjsggsRGZBFX4DkzqyP95M2Iy9uAoZ/dgf5Zy9A/ZRZu2PIwnjnp8ma/cSKIgydqEGpy7yet2xZqADTWTQLb97bovzuGrkGMwO8z/I++SwP7PrAdI6R9G1tDCIbq0KqAB5JZg1uKtz4VpJ/Mi378u9cwo+JeDMu8BXETbkJSyXr6xNScCstUahq/I6t9mZJO8InbYTy3wsZzE3PKEBgzDWNv3oqv/+ptSyGkhdOP1SmdjT4kbgvfq4UH+Z42IG4mtJ084/fG0LWIEbgbIRqLsv44qoVy2vimIpPcxIlgi6ZU0P/kxd/6xR9RtGgnEidMo288E8NKVqNPZjnistYgLnu9C8/MJLI2IC5/K/oVKwOkUruS6BlrMECTDa7egqSidUigxk1InYNPTinDpq8/jmdPuswYMpnVO66PYpbRyj3BG8/VeLfGcPW+WtneH/eNoXsQI3A3QgRWRJJyQImkGlN1AQskjE1rbEJLc9BM2HoSRxMknjsUxD3ffxrZt6xH3L8WY2jOYgzKKcegvBVGzCGTNmFgMbVsFkmbvNQ6pYaQtMMmVWBgzlIExs5AryumY3RJOTLm3obH/vA6XjvVYMNCta1tZsKHtEK9ZcKQxpXmFYHl67p31Lvqer27fkO03xZD1yBG4G6EhF9EUECEyOC0MM+JJorksuVjqImbgq4TzLvmaMNp/OgXz2DjPY9izJRyjMqejz6X3YDAp6ai35U3Y2jeMowoXm0IXDETfa78PPpfOR19x07F8LQZmFS+B4/+9qAlkVNkmPS+vQ3/ZmtTLVUw36iFb6Ylalqc9rX3JYFFXjU4emdtYwTuXsQI3I3wNbBILGI4AosQpKqZrNLEIjNJHGpAqJ6asj6IxlCYzL95vR5f++krWLj728ietRWXXlOOf7lqKT5euhQfKVmMMdPX49KpK5C/cDt2fu8/8cIpFzxylGR85XAl/e8gmkMn6d56U+5P8420cBx9cjRy397DhUBK+/rvKwJrGyNw9yJG4G6Ep/eMGNoKLjZYjqVITFgHksCzNsdRjNGFNLR5o4gvv/UAOfcqOfgC1erz3D5Hoj5bBTz9Vgh/4LE3eKFyUb1V04Q3T9aiulkTOfQJsn04RX/3BLekZXM9reZ6th38m/Z3RFD7c/aeajT0N/0Gx3/fGLoHMQJ3K0hQT8M6aF/E9RhDaLU9+85/Rl6huQVt1MbBmgbU1oVQS0UtQskcFplP8NpjAr9rOEjHtBKjTF5eaiazMo00NEgXS48KoiNNZSUqaGpCc1PExAOecVCD42YI+atJugkI0X5bDF2BGIG7EWaetpJ2raSWtvJ5vd5eEdWfBWXkJZoaW1FfVYfGGl3PY0ZonnD/EOJ+DW+v4jmRVdFTx/jISh4TwUVCETdUfwwtDUd4oBINdUeo3HW16Okeq+topaOON6mnmbfbMfWQh5sJr8+afnO03xZD1yBG4G6EkbWFNGshEWwrMqvTKILAvIwKEcEG6j0x1EhLNDYjVMX7pKHNvOYzedjIp9OEqOZvtb6QrWRAM/l0kLq5mQRWdHOblimhRudZLS9TF7I+cHuG37HmE9idUbMg8up+avAYgbsRp/E/eViMxoVT5jIAAAAASUVORK5CYII=;" vertex="1" parent="1">
          <mxGeometry x="-950" y="650" width="55" height="55" as="geometry" />
        </mxCell>
      </root>
    </mxGraphModel>
  </diagram>
</mxfile>
